<?xml version="1.0" encoding="UTF-8" standalone="no"?>
<!DOCTYPE svg PUBLIC "-//W3C//DTD SVG 1.1//EN"
 "http://www.w3.org/Graphics/SVG/1.1/DTD/svg11.dtd">
<!-- Generated by graphviz version 2.42.4 (0)
 -->
<!-- Pages: 1 -->
<svg width="1802pt" height="921pt"
 viewBox="0.00 0.00 1802.20 920.70" xmlns="http://www.w3.org/2000/svg" xmlns:xlink="http://www.w3.org/1999/xlink">
<g id="graph0" class="graph" transform="scale(1 1) rotate(0) translate(21.6 899.1)">
<polygon fill="white" stroke="transparent" points="-21.6,21.6 -21.6,-899.1 1780.6,-899.1 1780.6,21.6 -21.6,21.6"/>
<text text-anchor="middle" x="879.5" y="-864.7" font-family="Helvetica,sans-Serif" font-size="11.00">AppxManifestSchema2013_v2_r207.xsd</text>
<text text-anchor="middle" x="879.5" y="-852.7" font-family="Helvetica,sans-Serif" font-size="11.00">http://schemas.microsoft.com/appx/2013/manifest</text>
<g id="clust1" class="cluster">
<title>cluster_legend</title>
<path fill="none" stroke="#cccccc" d="M66,-713.5C66,-713.5 1628,-713.5 1628,-713.5 1634,-713.5 1640,-719.5 1640,-725.5 1640,-725.5 1640,-825.5 1640,-825.5 1640,-831.5 1634,-837.5 1628,-837.5 1628,-837.5 66,-837.5 66,-837.5 60,-837.5 54,-831.5 54,-825.5 54,-825.5 54,-725.5 54,-725.5 54,-719.5 60,-713.5 66,-713.5"/>
<text text-anchor="middle" x="847" y="-826.3" font-family="Helvetica,sans-Serif" font-size="9.00">legend</text>
</g>
<!-- G_ResourcePackage -->
<g id="node1" class="node">
<title>G_ResourcePackage</title>
<polygon fill="#dbeafe" stroke="black" points="61.5,-0.5 61.5,-36.5 162.5,-36.5 162.5,-0.5 61.5,-0.5"/>
<text text-anchor="middle" x="112" y="-21.5" font-family="Helvetica,sans-Serif" font-size="10.00">ResourcePackage</text>
<text text-anchor="middle" x="112" y="-10.5" font-family="Helvetica,sans-Serif" font-size="10.00">(boolean)</text>
</g>
<!-- G_DeviceCapability -->
<g id="node2" class="node">
<title>G_DeviceCapability</title>
<polygon fill="#dbeafe" stroke="black" points="62,-55.5 62,-91.5 162,-91.5 162,-55.5 62,-55.5"/>
<text text-anchor="middle" x="112" y="-76.5" font-family="Helvetica,sans-Serif" font-size="10.00">DeviceCapability</text>
<text text-anchor="middle" x="112" y="-65.5" font-family="Helvetica,sans-Serif" font-size="10.00">(global)</text>
</g>
<!-- T_DeviceCapability -->
<g id="node9" class="node">
<title>T_DeviceCapability</title>
<polygon fill="#f7f7f7" stroke="black" points="351.5,-45 351.5,-102 456.5,-102 456.5,-45 351.5,-45"/>
<text text-anchor="middle" x="404" y="-90" font-family="Helvetica,sans-Serif" font-size="10.00">DeviceCapability</text>
<polyline fill="none" stroke="black" points="351.5,-83 456.5,-83 "/>
<text text-anchor="middle" x="404" y="-71" font-family="Helvetica,sans-Serif" font-size="10.00">Device CT_Device</text>
<polyline fill="none" stroke="black" points="351.5,-64 456.5,-64 "/>
<text text-anchor="middle" x="404" y="-52" font-family="Helvetica,sans-Serif" font-size="10.00">[@ Name]</text>
</g>
<!-- G_DeviceCapability&#45;&gt;T_DeviceCapability -->
<g id="edge1" class="edge">
<title>G_DeviceCapability&#45;&gt;T_DeviceCapability</title>
<path fill="none" stroke="#555555" d="M162.19,-73.5C211.53,-73.5 287.66,-73.5 341.08,-73.5"/>
<polygon fill="#555555" stroke="#555555" points="341.11,-77 351.11,-73.5 341.11,-70 341.11,-77"/>
</g>
<!-- G_Extension -->
<g id="node3" class="node">
<title>G_Extension</title>
<polygon fill="#dbeafe" stroke="black" points="79.5,-152.5 79.5,-188.5 144.5,-188.5 144.5,-152.5 79.5,-152.5"/>
<text text-anchor="middle" x="112" y="-173.5" font-family="Helvetica,sans-Serif" font-size="10.00">Extension</text>
<text text-anchor="middle" x="112" y="-162.5" font-family="Helvetica,sans-Serif" font-size="10.00">(global)</text>
</g>
<!-- T_Extension -->
<g id="node10" class="node">
<title>T_Extension</title>
<polygon fill="#f7f7f7" stroke="black" points="274,-123 274,-218 534,-218 534,-123 274,-123"/>
<text text-anchor="middle" x="404" y="-206" font-family="Helvetica,sans-Serif" font-size="10.00">Extension</text>
<polyline fill="none" stroke="black" points="274,-199 534,-199 "/>
<text text-anchor="middle" x="404" y="-187" font-family="Helvetica,sans-Serif" font-size="10.00">Contact CT_Contact?</text>
<polyline fill="none" stroke="black" points="274,-180 534,-180 "/>
<text text-anchor="middle" x="404" y="-168" font-family="Helvetica,sans-Serif" font-size="10.00">AppointmentsProvider CT_AppointmentsProvider?</text>
<polyline fill="none" stroke="black" points="274,-161 534,-161 "/>
<text text-anchor="middle" x="404" y="-149" font-family="Helvetica,sans-Serif" font-size="10.00">[@ Category]</text>
<polyline fill="none" stroke="black" points="274,-142 534,-142 "/>
<text text-anchor="middle" x="404" y="-130" font-family="Helvetica,sans-Serif" font-size="10.00">[AG m:ExtensionBaseAttributes]</text>
</g>
<!-- G_Extension&#45;&gt;T_Extension -->
<g id="edge2" class="edge">
<title>G_Extension&#45;&gt;T_Extension</title>
<path fill="none" stroke="#555555" d="M144.59,-170.5C173.73,-170.5 219.11,-170.5 263.76,-170.5"/>
<polygon fill="#555555" stroke="#555555" points="263.87,-174 273.87,-170.5 263.87,-167 263.87,-174"/>
</g>
<!-- G_AppointmentsProviderLaunchActionChoice -->
<g id="node4" class="node">
<title>G_AppointmentsProviderLaunchActionChoice</title>
<polygon fill="#dbeafe" stroke="black" stroke-dasharray="5,2" points="224,-243.5 0,-243.5 0,-207.5 224,-207.5 224,-243.5"/>
<text text-anchor="middle" x="112" y="-228.5" font-family="Helvetica,sans-Serif" font-size="10.00">AppointmentsProviderLaunchActionChoice</text>
<text text-anchor="middle" x="112" y="-217.5" font-family="Helvetica,sans-Serif" font-size="10.00">(abstract)</text>
</g>
<!-- G_LaunchAction -->
<g id="node5" class="node">
<title>G_LaunchAction</title>
<polygon fill="#dbeafe" stroke="black" points="71,-262.5 71,-298.5 153,-298.5 153,-262.5 71,-262.5"/>
<text text-anchor="middle" x="112" y="-283.5" font-family="Helvetica,sans-Serif" font-size="10.00">LaunchAction</text>
<text text-anchor="middle" x="112" y="-272.5" font-family="Helvetica,sans-Serif" font-size="10.00">(global)</text>
</g>
<!-- T_LaunchAction -->
<g id="node13" class="node">
<title>T_LaunchAction</title>
<polygon fill="#f7f7f7" stroke="black" points="317,-252 317,-309 491,-309 491,-252 317,-252"/>
<text text-anchor="middle" x="404" y="-297" font-family="Helvetica,sans-Serif" font-size="10.00">LaunchAction</text>
<polyline fill="none" stroke="black" points="317,-290 491,-290 "/>
<text text-anchor="middle" x="404" y="-278" font-family="Helvetica,sans-Serif" font-size="10.00">[@ Verb, DesiredView]</text>
<polyline fill="none" stroke="black" points="317,-271 491,-271 "/>
<text text-anchor="middle" x="404" y="-259" font-family="Helvetica,sans-Serif" font-size="10.00">[AG m:ExtensionBaseAttributes]</text>
</g>
<!-- G_LaunchAction&#45;&gt;T_LaunchAction -->
<g id="edge3" class="edge">
<title>G_LaunchAction&#45;&gt;T_LaunchAction</title>
<path fill="none" stroke="#555555" d="M153.02,-280.5C192.5,-280.5 254.35,-280.5 306.65,-280.5"/>
<polygon fill="#555555" stroke="#555555" points="306.97,-284 316.97,-280.5 306.97,-277 306.97,-284"/>
</g>
<!-- G_VisualElements -->
<g id="node6" class="node">
<title>G_VisualElements</title>
<polygon fill="#dbeafe" stroke="black" points="66,-376.5 66,-412.5 158,-412.5 158,-376.5 66,-376.5"/>
<text text-anchor="middle" x="112" y="-397.5" font-family="Helvetica,sans-Serif" font-size="10.00">VisualElements</text>
<text text-anchor="middle" x="112" y="-386.5" font-family="Helvetica,sans-Serif" font-size="10.00">(global)</text>
</g>
<!-- T_VisualElements -->
<g id="node15" class="node">
<title>T_VisualElements</title>
<polygon fill="#f7f7f7" stroke="black" points="261,-366 261,-537 547,-537 547,-366 261,-366"/>
<text text-anchor="middle" x="404" y="-525" font-family="Helvetica,sans-Serif" font-size="10.00">VisualElements</text>
<polyline fill="none" stroke="black" points="261,-518 547,-518 "/>
<text text-anchor="middle" x="404" y="-506" font-family="Helvetica,sans-Serif" font-size="10.00">DefaultTile CT_DefaultTile?</text>
<polyline fill="none" stroke="black" points="261,-499 547,-499 "/>
<text text-anchor="middle" x="404" y="-487" font-family="Helvetica,sans-Serif" font-size="10.00">LockScreen CT_LockScreen?</text>
<polyline fill="none" stroke="black" points="261,-480 547,-480 "/>
<text text-anchor="middle" x="404" y="-468" font-family="Helvetica,sans-Serif" font-size="10.00">SplashScreen CT_SplashScreen?</text>
<polyline fill="none" stroke="black" points="261,-461 547,-461 "/>
<text text-anchor="middle" x="404" y="-449" font-family="Helvetica,sans-Serif" font-size="10.00">InitialRotationPreference CT_InitialRotationPreference?</text>
<polyline fill="none" stroke="black" points="261,-442 547,-442 "/>
<text text-anchor="middle" x="404" y="-430" font-family="Helvetica,sans-Serif" font-size="10.00">ApplicationView CT_ApplicationView?</text>
<polyline fill="none" stroke="black" points="261,-423 547,-423 "/>
<text text-anchor="middle" x="404" y="-411" font-family="Helvetica,sans-Serif" font-size="10.00">? ??</text>
<polyline fill="none" stroke="black" points="261,-404 547,-404 "/>
<text text-anchor="middle" x="404" y="-392" font-family="Helvetica,sans-Serif" font-size="10.00">[@ Square150x150Logo, Square30x30Logo]</text>
<polyline fill="none" stroke="black" points="261,-385 547,-385 "/>
<text text-anchor="middle" x="404" y="-373" font-family="Helvetica,sans-Serif" font-size="10.00">[AG m:VisualElementsBaseAttributes]</text>
</g>
<!-- G_VisualElements&#45;&gt;T_VisualElements -->
<g id="edge4" class="edge">
<title>G_VisualElements&#45;&gt;T_VisualElements</title>
<path fill="none" stroke="#555555" d="M158.31,-403.41C183.69,-408.39 216.95,-414.93 250.75,-421.57"/>
<polygon fill="#555555" stroke="#555555" points="250.27,-425.05 260.76,-423.54 251.62,-418.18 250.27,-425.05"/>
</g>
<!-- IMP_types -->
<g id="node23" class="node">
<title>IMP_types</title>
<polygon fill="none" stroke="black" stroke-dasharray="5,2" points="1629,-397.5 1564,-397.5 1564,-361.5 1629,-361.5 1629,-397.5"/>
<text text-anchor="middle" x="1596.5" y="-382.5" font-family="Helvetica,sans-Serif" font-size="10.00">types</text>
<text text-anchor="middle" x="1596.5" y="-371.5" font-family="Helvetica,sans-Serif" font-size="10.00">(external)</text>
</g>
<!-- G_VisualElements&#45;&gt;IMP_types -->
<g id="edge15" class="edge">
<title>G_VisualElements&#45;&gt;IMP_types</title>
<path fill="none" stroke="#bbbbbb" stroke-dasharray="5,2" d="M158.1,-379.77C187.13,-371.08 225.86,-360.94 261,-356.5 387.11,-340.57 419.89,-355.48 547,-356.5 933.26,-359.61 1029.94,-357.72 1416,-370.5 1463.12,-372.06 1517.14,-374.91 1553.51,-376.99"/>
<polygon fill="#bbbbbb" stroke="#bbbbbb" points="1553.55,-380.5 1563.74,-377.58 1553.96,-373.51 1553.55,-380.5"/>
</g>
<!-- G_Task -->
<g id="node7" class="node">
<title>G_Task</title>
<polygon fill="#dbeafe" stroke="black" points="85,-557.5 85,-593.5 139,-593.5 139,-557.5 85,-557.5"/>
<text text-anchor="middle" x="112" y="-578.5" font-family="Helvetica,sans-Serif" font-size="10.00">Task</text>
<text text-anchor="middle" x="112" y="-567.5" font-family="Helvetica,sans-Serif" font-size="10.00">(global)</text>
</g>
<!-- T_Task -->
<g id="node18" class="node">
<title>T_Task</title>
<polygon fill="#f7f7f7" stroke="black" points="374.5,-556.5 374.5,-594.5 433.5,-594.5 433.5,-556.5 374.5,-556.5"/>
<text text-anchor="middle" x="404" y="-582.5" font-family="Helvetica,sans-Serif" font-size="10.00">Task</text>
<polyline fill="none" stroke="black" points="374.5,-575.5 433.5,-575.5 "/>
<text text-anchor="middle" x="404" y="-563.5" font-family="Helvetica,sans-Serif" font-size="10.00">[@ Type]</text>
</g>
<!-- G_Task&#45;&gt;T_Task -->
<g id="edge5" class="edge">
<title>G_Task&#45;&gt;T_Task</title>
<path fill="none" stroke="#555555" d="M139.25,-575.5C190.54,-575.5 304.31,-575.5 364.28,-575.5"/>
<polygon fill="#555555" stroke="#555555" points="364.47,-579 374.47,-575.5 364.47,-572 364.47,-579"/>
</g>
<!-- T_CT_Device -->
<g id="node8" class="node">
<title>T_CT_Device</title>
<polygon fill="#f7f7f7" stroke="black" points="883.5,-45 883.5,-102 1040.5,-102 1040.5,-45 883.5,-45"/>
<text text-anchor="middle" x="962" y="-90" font-family="Helvetica,sans-Serif" font-size="10.00">CT_Device</text>
<polyline fill="none" stroke="black" points="883.5,-83 1040.5,-83 "/>
<text text-anchor="middle" x="962" y="-71" font-family="Helvetica,sans-Serif" font-size="10.00">Function CT_Device.Function</text>
<polyline fill="none" stroke="black" points="883.5,-64 1040.5,-64 "/>
<text text-anchor="middle" x="962" y="-52" font-family="Helvetica,sans-Serif" font-size="10.00">[@ Id]</text>
</g>
<!-- T_CT_Device.Function -->
<g id="node19" class="node">
<title>T_CT_Device.Function</title>
<polygon fill="#f7f7f7" stroke="black" points="1540,-54.5 1540,-92.5 1653,-92.5 1653,-54.5 1540,-54.5"/>
<text text-anchor="middle" x="1596.5" y="-80.5" font-family="Helvetica,sans-Serif" font-size="10.00">CT_Device.Function</text>
<polyline fill="none" stroke="black" points="1540,-73.5 1653,-73.5 "/>
<text text-anchor="middle" x="1596.5" y="-61.5" font-family="Helvetica,sans-Serif" font-size="10.00">[@ Type]</text>
</g>
<!-- T_CT_Device&#45;&gt;T_CT_Device.Function -->
<g id="edge6" class="edge">
<title>T_CT_Device&#45;&gt;T_CT_Device.Function</title>
<path fill="none" stroke="#555555" d="M1040.56,-73.5C1166.08,-73.5 1411.54,-73.5 1529.34,-73.5"/>
<polygon fill="#555555" stroke="#555555" points="1529.65,-77 1539.65,-73.5 1529.65,-70 1529.65,-77"/>
<text text-anchor="middle" x="1332" y="-76.3" font-family="Helvetica,sans-Serif" font-size="9.00">Function</text>
</g>
<!-- T_DeviceCapability&#45;&gt;T_CT_Device -->
<g id="edge7" class="edge">
<title>T_DeviceCapability&#45;&gt;T_CT_Device</title>
<path fill="none" stroke="#555555" d="M456.81,-73.5C552.03,-73.5 755.82,-73.5 873.07,-73.5"/>
<polygon fill="#555555" stroke="#555555" points="873.09,-77 883.09,-73.5 873.09,-70 873.09,-77"/>
<text text-anchor="middle" x="620.5" y="-76.3" font-family="Helvetica,sans-Serif" font-size="9.00">Device</text>
</g>
<!-- T_CT_Contact -->
<g id="node11" class="node">
<title>T_CT_Contact</title>
<polygon fill="#f7f7f7" stroke="black" points="812.5,-203.5 812.5,-241.5 1111.5,-241.5 1111.5,-203.5 812.5,-203.5"/>
<text text-anchor="middle" x="962" y="-229.5" font-family="Helvetica,sans-Serif" font-size="10.00">CT_Contact</text>
<polyline fill="none" stroke="black" points="812.5,-222.5 1111.5,-222.5 "/>
<text text-anchor="middle" x="962" y="-210.5" font-family="Helvetica,sans-Serif" font-size="10.00">ContactLaunchActions CT_Contact.ContactLaunchActions?</text>
</g>
<!-- T_Extension&#45;&gt;T_CT_Contact -->
<g id="edge8" class="edge">
<title>T_Extension&#45;&gt;T_CT_Contact</title>
<path fill="none" stroke="#555555" d="M534.31,-182.59C614.24,-190.07 717.41,-199.72 802.28,-207.66"/>
<polygon fill="#555555" stroke="#555555" points="801.99,-211.14 812.27,-208.59 802.64,-204.17 801.99,-211.14"/>
<text text-anchor="middle" x="620.5" y="-198.3" font-family="Helvetica,sans-Serif" font-size="9.00">Contact</text>
</g>
<!-- T_CT_AppointmentsProvider -->
<g id="node14" class="node">
<title>T_CT_AppointmentsProvider</title>
<polygon fill="#f7f7f7" stroke="black" points="706,-141.5 706,-179.5 1218,-179.5 1218,-141.5 706,-141.5"/>
<text text-anchor="middle" x="962" y="-167.5" font-family="Helvetica,sans-Serif" font-size="10.00">CT_AppointmentsProvider</text>
<polyline fill="none" stroke="black" points="706,-160.5 1218,-160.5 "/>
<text text-anchor="middle" x="962" y="-148.5" font-family="Helvetica,sans-Serif" font-size="10.00">AppointmentsProviderLaunchActions CT_AppointmentsProvider.AppointmentsProviderLaunchActions?</text>
</g>
<!-- T_Extension&#45;&gt;T_CT_AppointmentsProvider -->
<g id="edge9" class="edge">
<title>T_Extension&#45;&gt;T_CT_AppointmentsProvider</title>
<path fill="none" stroke="#555555" d="M534.31,-168.17C582.66,-167.3 639.51,-166.28 695.68,-165.27"/>
<polygon fill="#555555" stroke="#555555" points="695.85,-168.77 705.78,-165.09 695.72,-161.77 695.85,-168.77"/>
<text text-anchor="middle" x="620.5" y="-171.3" font-family="Helvetica,sans-Serif" font-size="9.00">AppointmentsProvider</text>
</g>
<!-- T_CT_Contact.ContactLaunchActions -->
<g id="node20" class="node">
<title>T_CT_Contact.ContactLaunchActions</title>
<polygon fill="#f7f7f7" stroke="black" points="1505,-203 1505,-260 1688,-260 1688,-203 1505,-203"/>
<text text-anchor="middle" x="1596.5" y="-248" font-family="Helvetica,sans-Serif" font-size="10.00">CT_Contact.ContactLaunchActions</text>
<polyline fill="none" stroke="black" points="1505,-241 1688,-241 "/>
<text text-anchor="middle" x="1596.5" y="-229" font-family="Helvetica,sans-Serif" font-size="10.00">LaunchAction ?</text>
<polyline fill="none" stroke="black" points="1505,-222 1688,-222 "/>
<text text-anchor="middle" x="1596.5" y="-210" font-family="Helvetica,sans-Serif" font-size="10.00">[@ DesiredView]</text>
</g>
<!-- T_CT_Contact&#45;&gt;T_CT_Contact.ContactLaunchActions -->
<g id="edge10" class="edge">
<title>T_CT_Contact&#45;&gt;T_CT_Contact.ContactLaunchActions</title>
<path fill="none" stroke="#555555" d="M1111.69,-224.62C1229.73,-226.3 1391.56,-228.6 1494.84,-230.07"/>
<polygon fill="#555555" stroke="#555555" points="1494.91,-233.57 1504.96,-230.21 1495.01,-226.57 1494.91,-233.57"/>
<text text-anchor="middle" x="1332" y="-232.3" font-family="Helvetica,sans-Serif" font-size="9.00">ContactLaunchActions</text>
</g>
<!-- T_CT_ServiceId -->
<g id="node12" class="node">
<title>T_CT_ServiceId</title>
<polygon fill="#f7f7f7" stroke="black" points="72,-612.5 72,-648.5 152,-648.5 152,-612.5 72,-612.5"/>
<text text-anchor="middle" x="112" y="-628" font-family="Helvetica,sans-Serif" font-size="10.00">CT_ServiceId</text>
</g>
<!-- T_CT_AppointmentsProvider.AppointmentsProviderLaunchActions -->
<g id="node21" class="node">
<title>T_CT_AppointmentsProvider.AppointmentsProviderLaunchActions</title>
<polygon fill="#f7f7f7" stroke="black" points="1434,-127 1434,-184 1759,-184 1759,-127 1434,-127"/>
<text text-anchor="middle" x="1596.5" y="-172" font-family="Helvetica,sans-Serif" font-size="10.00">CT_AppointmentsProvider.AppointmentsProviderLaunchActions</text>
<polyline fill="none" stroke="black" points="1434,-165 1759,-165 "/>
<text text-anchor="middle" x="1596.5" y="-153" font-family="Helvetica,sans-Serif" font-size="10.00">? ??</text>
<polyline fill="none" stroke="black" points="1434,-146 1759,-146 "/>
<text text-anchor="middle" x="1596.5" y="-134" font-family="Helvetica,sans-Serif" font-size="10.00">[@ DesiredView]</text>
</g>
<!-- T_CT_AppointmentsProvider&#45;&gt;T_CT_AppointmentsProvider.AppointmentsProviderLaunchActions -->
<g id="edge11" class="edge">
<title>T_CT_AppointmentsProvider&#45;&gt;T_CT_AppointmentsProvider.AppointmentsProviderLaunchActions</title>
<path fill="none" stroke="#555555" d="M1218.44,-158.48C1287.43,-157.94 1360.44,-157.36 1423.65,-156.86"/>
<polygon fill="#555555" stroke="#555555" points="1423.73,-160.36 1433.71,-156.78 1423.68,-153.36 1423.73,-160.36"/>
<text text-anchor="middle" x="1332" y="-161.3" font-family="Helvetica,sans-Serif" font-size="9.00">AppointmentsProviderLaunchActions</text>
</g>
<!-- T_CT_DefaultTile -->
<g id="node16" class="node">
<title>T_CT_DefaultTile</title>
<polygon fill="#f7f7f7" stroke="black" points="694,-408.5 694,-484.5 1230,-484.5 1230,-408.5 694,-408.5"/>
<text text-anchor="middle" x="962" y="-472.5" font-family="Helvetica,sans-Serif" font-size="10.00">CT_DefaultTile</text>
<polyline fill="none" stroke="black" points="694,-465.5 1230,-465.5 "/>
<text text-anchor="middle" x="962" y="-453.5" font-family="Helvetica,sans-Serif" font-size="10.00">TileUpdate CT_TileUpdate?</text>
<polyline fill="none" stroke="black" points="694,-446.5 1230,-446.5 "/>
<text text-anchor="middle" x="962" y="-434.5" font-family="Helvetica,sans-Serif" font-size="10.00">ShowNameOnTiles CT_DefaultTile.ShowNameOnTiles?</text>
<polyline fill="none" stroke="black" points="694,-427.5 1230,-427.5 "/>
<text text-anchor="middle" x="962" y="-415.5" font-family="Helvetica,sans-Serif" font-size="10.00">[@ Wide310x150Logo, Square310x310Logo, Square70x70Logo, Tall150x310Logo, ShortName, DefaultSize]</text>
</g>
<!-- T_VisualElements&#45;&gt;T_CT_DefaultTile -->
<g id="edge12" class="edge">
<title>T_VisualElements&#45;&gt;T_CT_DefaultTile</title>
<path fill="none" stroke="#555555" d="M547.1,-450.22C589,-449.85 636.37,-449.42 683.71,-448.99"/>
<polygon fill="#555555" stroke="#555555" points="683.84,-452.49 693.81,-448.9 683.78,-445.49 683.84,-452.49"/>
<text text-anchor="middle" x="620.5" y="-453.3" font-family="Helvetica,sans-Serif" font-size="9.00">DefaultTile</text>
</g>
<!-- T_CT_InitialRotationPreference -->
<g id="node17" class="node">
<title>T_CT_InitialRotationPreference</title>
<polygon fill="#f7f7f7" stroke="black" points="884,-503.5 884,-541.5 1040,-541.5 1040,-503.5 884,-503.5"/>
<text text-anchor="middle" x="962" y="-529.5" font-family="Helvetica,sans-Serif" font-size="10.00">CT_InitialRotationPreference</text>
<polyline fill="none" stroke="black" points="884,-522.5 1040,-522.5 "/>
<text text-anchor="middle" x="962" y="-510.5" font-family="Helvetica,sans-Serif" font-size="10.00">Rotation CT_Rotation</text>
</g>
<!-- T_VisualElements&#45;&gt;T_CT_InitialRotationPreference -->
<g id="edge13" class="edge">
<title>T_VisualElements&#45;&gt;T_CT_InitialRotationPreference</title>
<path fill="none" stroke="#555555" d="M547.08,-473.19C593.83,-480.05 646.09,-487.42 694,-493.5 753.84,-501.1 821.39,-508.42 873.57,-513.81"/>
<polygon fill="#555555" stroke="#555555" points="873.49,-517.32 883.8,-514.86 874.21,-510.36 873.49,-517.32"/>
<text text-anchor="middle" x="620.5" y="-493.3" font-family="Helvetica,sans-Serif" font-size="9.00">InitialRotationPreference</text>
</g>
<!-- T_VisualElements&#45;&gt;IMP_types -->
<g id="edge16" class="edge">
<title>T_VisualElements&#45;&gt;IMP_types</title>
<path fill="none" stroke="#bbbbbb" stroke-dasharray="5,2" d="M547.3,-420.72C593.84,-411.91 645.92,-403.38 694,-398.5 1023.86,-365 1424.97,-373.92 1553.65,-378.01"/>
<polygon fill="#bbbbbb" stroke="#bbbbbb" points="1553.74,-381.51 1563.85,-378.34 1553.97,-374.52 1553.74,-381.51"/>
</g>
<!-- T_CT_DefaultTile.ShowNameOnTiles -->
<g id="node22" class="node">
<title>T_CT_DefaultTile.ShowNameOnTiles</title>
<polygon fill="#f7f7f7" stroke="black" points="1504.5,-427.5 1504.5,-465.5 1688.5,-465.5 1688.5,-427.5 1504.5,-427.5"/>
<text text-anchor="middle" x="1596.5" y="-453.5" font-family="Helvetica,sans-Serif" font-size="10.00">CT_DefaultTile.ShowNameOnTiles</text>
<polyline fill="none" stroke="black" points="1504.5,-446.5 1688.5,-446.5 "/>
<text text-anchor="middle" x="1596.5" y="-434.5" font-family="Helvetica,sans-Serif" font-size="10.00">ShowOn ?</text>
</g>
<!-- T_CT_DefaultTile&#45;&gt;T_CT_DefaultTile.ShowNameOnTiles -->
<g id="edge14" class="edge">
<title>T_CT_DefaultTile&#45;&gt;T_CT_DefaultTile.ShowNameOnTiles</title>
<path fill="none" stroke="#555555" d="M1230.32,-446.5C1323.51,-446.5 1422.51,-446.5 1493.89,-446.5"/>
<polygon fill="#555555" stroke="#555555" points="1494.22,-450 1504.22,-446.5 1494.22,-443 1494.22,-450"/>
<text text-anchor="middle" x="1332" y="-449.3" font-family="Helvetica,sans-Serif" font-size="9.00">ShowNameOnTiles</text>
</g>
<!-- T_CT_DefaultTile&#45;&gt;IMP_types -->
<g id="edge17" class="edge">
<title>T_CT_DefaultTile&#45;&gt;IMP_types</title>
<path fill="none" stroke="#bbbbbb" stroke-dasharray="5,2" d="M1230.32,-418.18C1353.85,-405.1 1487.59,-390.93 1553.67,-383.93"/>
<polygon fill="#bbbbbb" stroke="#bbbbbb" points="1554.11,-387.4 1563.68,-382.87 1553.37,-380.44 1554.11,-387.4"/>
</g>
<!-- IMP_manifest -->
<g id="node24" class="node">
<title>IMP_manifest</title>
<polygon fill="none" stroke="black" stroke-dasharray="5,2" points="1629,-540.5 1564,-540.5 1564,-504.5 1629,-504.5 1629,-540.5"/>
<text text-anchor="middle" x="1596.5" y="-525.5" font-family="Helvetica,sans-Serif" font-size="10.00">manifest</text>
<text text-anchor="middle" x="1596.5" y="-514.5" font-family="Helvetica,sans-Serif" font-size="10.00">(external)</text>
</g>
<!-- T_CT_InitialRotationPreference&#45;&gt;IMP_manifest -->
<g id="edge18" class="edge">
<title>T_CT_InitialRotationPreference&#45;&gt;IMP_manifest</title>
<path fill="none" stroke="#bbbbbb" stroke-dasharray="5,2" d="M1040.24,-522.5C1175.17,-522.5 1449.38,-522.5 1553.83,-522.5"/>
<polygon fill="#bbbbbb" stroke="#bbbbbb" points="1553.98,-526 1563.98,-522.5 1553.98,-519 1553.98,-526"/>
</g>
<!-- IMP_thresholdpreview -->
<g id="node25" class="node">
<title>IMP_thresholdpreview</title>
<polygon fill="none" stroke="black" stroke-dasharray="5,2" points="162.5,-703.5 61.5,-703.5 61.5,-667.5 162.5,-667.5 162.5,-703.5"/>
<text text-anchor="middle" x="112" y="-688.5" font-family="Helvetica,sans-Serif" font-size="10.00">thresholdpreview</text>
<text text-anchor="middle" x="112" y="-677.5" font-family="Helvetica,sans-Serif" font-size="10.00">(external)</text>
</g>
<!-- L1 -->
<g id="node26" class="node">
<title>L1</title>
<polygon fill="#dbeafe" stroke="black" points="157,-811.5 67,-811.5 67,-775.5 157,-775.5 157,-811.5"/>
<text text-anchor="middle" x="112" y="-791" font-family="Helvetica,sans-Serif" font-size="10.00">global element</text>
</g>
<!-- L2 -->
<g id="node27" class="node">
<title>L2</title>
<polygon fill="#f7f7f7" stroke="black" points="444.5,-810.5 363.5,-810.5 363.5,-774.5 444.5,-774.5 444.5,-810.5"/>
<text text-anchor="middle" x="404" y="-790" font-family="Helvetica,sans-Serif" font-size="10.00">complexType</text>
</g>
<!-- L1&#45;&gt;L2 -->
<!-- L3 -->
<g id="node30" class="node">
<title>L3</title>
<polygon fill="#f7f7f7" stroke="black" points="935,-774.5 935,-810.5 989,-810.5 989,-774.5 935,-774.5"/>
<text text-anchor="middle" x="962" y="-790" font-family="Helvetica,sans-Serif" font-size="10.00">L3</text>
</g>
<!-- L2&#45;&gt;L3 -->
<!-- L4 -->
<g id="node28" class="node">
<title>L4</title>
<polygon fill="none" stroke="black" stroke-dasharray="5,2" points="1632,-810.5 1561,-810.5 1561,-774.5 1632,-774.5 1632,-810.5"/>
<text text-anchor="middle" x="1596.5" y="-790" font-family="Helvetica,sans-Serif" font-size="10.00">external ns</text>
</g>
<!-- L5 -->
<g id="node29" class="node">
<title>L5</title>
<polygon fill="none" stroke="black" stroke-dasharray="5,2" points="162,-757.5 62,-757.5 62,-721.5 162,-721.5 162,-757.5"/>
<text text-anchor="middle" x="112" y="-737" font-family="Helvetica,sans-Serif" font-size="10.00">abstract element</text>
</g>
<!-- L3&#45;&gt;L4 -->
</g>
</svg>
