<?xml version="1.0" encoding="UTF-8" standalone="no"?>
<!DOCTYPE svg PUBLIC "-//W3C//DTD SVG 1.1//EN"
 "http://www.w3.org/Graphics/SVG/1.1/DTD/svg11.dtd">
<!-- Generated by graphviz version 2.42.4 (0)
 -->
<!-- Pages: 1 -->
<svg width="547pt" height="310pt"
 viewBox="0.00 0.00 547.20 309.70" xmlns="http://www.w3.org/2000/svg" xmlns:xlink="http://www.w3.org/1999/xlink">
<g id="graph0" class="graph" transform="scale(1 1) rotate(0) translate(21.6 288.1)">
<polygon fill="white" stroke="transparent" points="-21.6,21.6 -21.6,-288.1 525.6,-288.1 525.6,21.6 -21.6,21.6"/>
<text text-anchor="middle" x="252" y="-253.7" font-family="Helvetica,sans-Serif" font-size="11.00">AppxManifest_Foundation_WindowsCapabilities.xsd</text>
<text text-anchor="middle" x="252" y="-241.7" font-family="Helvetica,sans-Serif" font-size="11.00">http://schemas.microsoft.com/appx/manifest/foundation/windows10/windowscapabilities</text>
<g id="clust1" class="cluster">
<title>cluster_legend</title>
<path fill="none" stroke="#cccccc" d="M152.5,-156.5C152.5,-156.5 351.5,-156.5 351.5,-156.5 357.5,-156.5 363.5,-162.5 363.5,-168.5 363.5,-168.5 363.5,-214.5 363.5,-214.5 363.5,-220.5 357.5,-226.5 351.5,-226.5 351.5,-226.5 152.5,-226.5 152.5,-226.5 146.5,-226.5 140.5,-220.5 140.5,-214.5 140.5,-214.5 140.5,-168.5 140.5,-168.5 140.5,-162.5 146.5,-156.5 152.5,-156.5"/>
<text text-anchor="middle" x="252" y="-215.3" font-family="Helvetica,sans-Serif" font-size="9.00">legend</text>
</g>
<!-- G_Capability -->
<g id="node1" class="node">
<title>G_Capability</title>
<polygon fill="#dbeafe" stroke="black" points="160.5,-1.5 160.5,-37.5 226.5,-37.5 226.5,-1.5 160.5,-1.5"/>
<text text-anchor="middle" x="193.5" y="-22.5" font-family="Helvetica,sans-Serif" font-size="10.00">Capability</text>
<text text-anchor="middle" x="193.5" y="-11.5" font-family="Helvetica,sans-Serif" font-size="10.00">(global)</text>
</g>
<!-- T_Capability -->
<g id="node2" class="node">
<title>T_Capability</title>
<polygon fill="#f7f7f7" stroke="black" points="282,-0.5 282,-38.5 348,-38.5 348,-0.5 282,-0.5"/>
<text text-anchor="middle" x="315" y="-26.5" font-family="Helvetica,sans-Serif" font-size="10.00">Capability</text>
<polyline fill="none" stroke="black" points="282,-19.5 348,-19.5 "/>
<text text-anchor="middle" x="315" y="-7.5" font-family="Helvetica,sans-Serif" font-size="10.00">[@ Name]</text>
</g>
<!-- G_Capability&#45;&gt;T_Capability -->
<g id="edge1" class="edge">
<title>G_Capability&#45;&gt;T_Capability</title>
<path fill="none" stroke="#555555" d="M226.52,-19.5C240.45,-19.5 256.97,-19.5 271.88,-19.5"/>
<polygon fill="#555555" stroke="#555555" points="271.89,-23 281.89,-19.5 271.89,-16 271.89,-23"/>
</g>
<!-- IMP_types -->
<g id="node3" class="node">
<title>IMP_types</title>
<polygon fill="none" stroke="black" stroke-dasharray="5,2" points="226,-92.5 161,-92.5 161,-56.5 226,-56.5 226,-92.5"/>
<text text-anchor="middle" x="193.5" y="-77.5" font-family="Helvetica,sans-Serif" font-size="10.00">types</text>
<text text-anchor="middle" x="193.5" y="-66.5" font-family="Helvetica,sans-Serif" font-size="10.00">(external)</text>
</g>
<!-- IMP_windows10 -->
<g id="node4" class="node">
<title>IMP_windows10</title>
<polygon fill="none" stroke="black" stroke-dasharray="5,2" points="229,-146.5 158,-146.5 158,-110.5 229,-110.5 229,-146.5"/>
<text text-anchor="middle" x="193.5" y="-131.5" font-family="Helvetica,sans-Serif" font-size="10.00">windows10</text>
<text text-anchor="middle" x="193.5" y="-120.5" font-family="Helvetica,sans-Serif" font-size="10.00">(external)</text>
</g>
<!-- L1 -->
<g id="node5" class="node">
<title>L1</title>
<polygon fill="#dbeafe" stroke="black" points="238.5,-200.5 148.5,-200.5 148.5,-164.5 238.5,-164.5 238.5,-200.5"/>
<text text-anchor="middle" x="193.5" y="-180" font-family="Helvetica,sans-Serif" font-size="10.00">global element</text>
</g>
<!-- L2 -->
<g id="node6" class="node">
<title>L2</title>
<polygon fill="#f7f7f7" stroke="black" points="355.5,-200.5 274.5,-200.5 274.5,-164.5 355.5,-164.5 355.5,-200.5"/>
<text text-anchor="middle" x="315" y="-180" font-family="Helvetica,sans-Serif" font-size="10.00">complexType</text>
</g>
<!-- L1&#45;&gt;L2 -->
</g>
</svg>
