<?xml version="1.0" encoding="UTF-8" standalone="no"?>
<!DOCTYPE svg PUBLIC "-//W3C//DTD SVG 1.1//EN"
 "http://www.w3.org/Graphics/SVG/1.1/DTD/svg11.dtd">
<!-- Generated by graphviz version 2.42.4 (0)
 -->
<!-- Pages: 1 -->
<svg width="387pt" height="413pt"
 viewBox="0.00 0.00 387.20 413.20" xmlns="http://www.w3.org/2000/svg" xmlns:xlink="http://www.w3.org/1999/xlink">
<g id="graph0" class="graph" transform="scale(1 1) rotate(0) translate(21.6 391.6)">
<polygon fill="white" stroke="transparent" points="-21.6,21.6 -21.6,-391.6 365.6,-391.6 365.6,21.6 -21.6,21.6"/>
<text text-anchor="middle" x="172" y="-357.2" font-family="Helvetica,sans-Serif" font-size="11.00">AppxContentGroupMap.xsd</text>
<text text-anchor="middle" x="172" y="-345.2" font-family="Helvetica,sans-Serif" font-size="11.00">http://schemas.microsoft.com/appx/2016/contentgroupmap</text>
<g id="clust1" class="cluster">
<title>cluster_legend</title>
<path fill="none" stroke="#cccccc" d="M44.25,-260C44.25,-260 283.25,-260 283.25,-260 289.25,-260 295.25,-266 295.25,-272 295.25,-272 295.25,-318 295.25,-318 295.25,-324 289.25,-330 283.25,-330 283.25,-330 44.25,-330 44.25,-330 38.25,-330 32.25,-324 32.25,-318 32.25,-318 32.25,-272 32.25,-272 32.25,-266 38.25,-260 44.25,-260"/>
<text text-anchor="middle" x="163.75" y="-318.8" font-family="Helvetica,sans-Serif" font-size="9.00">legend</text>
</g>
<!-- G_ContentGroupMap -->
<g id="node1" class="node">
<title>G_ContentGroupMap</title>
<polygon fill="#dbeafe" stroke="black" points="32.75,-11 32.75,-47 137.75,-47 137.75,-11 32.75,-11"/>
<text text-anchor="middle" x="85.25" y="-32" font-family="Helvetica,sans-Serif" font-size="10.00">ContentGroupMap</text>
<text text-anchor="middle" x="85.25" y="-21" font-family="Helvetica,sans-Serif" font-size="10.00">(global)</text>
</g>
<!-- T_CT_ContentGroupMap -->
<g id="node5" class="node">
<title>T_CT_ContentGroupMap</title>
<polygon fill="#f7f7f7" stroke="black" points="173.75,-0.5 173.75,-57.5 319.75,-57.5 319.75,-0.5 173.75,-0.5"/>
<text text-anchor="middle" x="246.75" y="-45.5" font-family="Helvetica,sans-Serif" font-size="10.00">CT_ContentGroupMap</text>
<polyline fill="none" stroke="black" points="173.75,-38.5 319.75,-38.5 "/>
<text text-anchor="middle" x="246.75" y="-26.5" font-family="Helvetica,sans-Serif" font-size="10.00">? ??</text>
<polyline fill="none" stroke="black" points="173.75,-19.5 319.75,-19.5 "/>
<text text-anchor="middle" x="246.75" y="-7.5" font-family="Helvetica,sans-Serif" font-size="10.00">[@ IgnorableNamespaces]</text>
</g>
<!-- G_ContentGroupMap&#45;&gt;T_CT_ContentGroupMap -->
<g id="edge1" class="edge">
<title>G_ContentGroupMap&#45;&gt;T_CT_ContentGroupMap</title>
<path fill="none" stroke="#555555" d="M138.04,-29C146.21,-29 154.83,-29 163.49,-29"/>
<polygon fill="#555555" stroke="#555555" points="163.65,-32.5 173.65,-29 163.65,-25.5 163.65,-32.5"/>
</g>
<!-- G_Automatic -->
<g id="node2" class="node">
<title>G_Automatic</title>
<polygon fill="#dbeafe" stroke="black" points="51.75,-78 51.75,-114 118.75,-114 118.75,-78 51.75,-78"/>
<text text-anchor="middle" x="85.25" y="-99" font-family="Helvetica,sans-Serif" font-size="10.00">Automatic</text>
<text text-anchor="middle" x="85.25" y="-88" font-family="Helvetica,sans-Serif" font-size="10.00">(global)</text>
</g>
<!-- T_CT_Automatic -->
<g id="node6" class="node">
<title>T_CT_Automatic</title>
<polygon fill="#f7f7f7" stroke="black" points="204.25,-77 204.25,-115 289.25,-115 289.25,-77 204.25,-77"/>
<text text-anchor="middle" x="246.75" y="-103" font-family="Helvetica,sans-Serif" font-size="10.00">CT_Automatic</text>
<polyline fill="none" stroke="black" points="204.25,-96 289.25,-96 "/>
<text text-anchor="middle" x="246.75" y="-84" font-family="Helvetica,sans-Serif" font-size="10.00">? ?</text>
</g>
<!-- G_Automatic&#45;&gt;T_CT_Automatic -->
<g id="edge2" class="edge">
<title>G_Automatic&#45;&gt;T_CT_Automatic</title>
<path fill="none" stroke="#555555" d="M118.91,-96C140.44,-96 169.11,-96 193.74,-96"/>
<polygon fill="#555555" stroke="#555555" points="194.02,-99.5 204.02,-96 194.02,-92.5 194.02,-99.5"/>
</g>
<!-- G_ContentGroup -->
<g id="node3" class="node">
<title>G_ContentGroup</title>
<polygon fill="#dbeafe" stroke="black" points="43.25,-145 43.25,-181 127.25,-181 127.25,-145 43.25,-145"/>
<text text-anchor="middle" x="85.25" y="-166" font-family="Helvetica,sans-Serif" font-size="10.00">ContentGroup</text>
<text text-anchor="middle" x="85.25" y="-155" font-family="Helvetica,sans-Serif" font-size="10.00">(global)</text>
</g>
<!-- T_CT_ContentGroup -->
<g id="node7" class="node">
<title>T_CT_ContentGroup</title>
<polygon fill="#f7f7f7" stroke="black" points="195.75,-134.5 195.75,-191.5 297.75,-191.5 297.75,-134.5 195.75,-134.5"/>
<text text-anchor="middle" x="246.75" y="-179.5" font-family="Helvetica,sans-Serif" font-size="10.00">CT_ContentGroup</text>
<polyline fill="none" stroke="black" points="195.75,-172.5 297.75,-172.5 "/>
<text text-anchor="middle" x="246.75" y="-160.5" font-family="Helvetica,sans-Serif" font-size="10.00">? ?</text>
<polyline fill="none" stroke="black" points="195.75,-153.5 297.75,-153.5 "/>
<text text-anchor="middle" x="246.75" y="-141.5" font-family="Helvetica,sans-Serif" font-size="10.00">[@ Name]</text>
</g>
<!-- G_ContentGroup&#45;&gt;T_CT_ContentGroup -->
<g id="edge3" class="edge">
<title>G_ContentGroup&#45;&gt;T_CT_ContentGroup</title>
<path fill="none" stroke="#555555" d="M127.33,-163C145.09,-163 166.23,-163 185.7,-163"/>
<polygon fill="#555555" stroke="#555555" points="185.7,-166.5 195.7,-163 185.7,-159.5 185.7,-166.5"/>
</g>
<!-- G_File -->
<g id="node4" class="node">
<title>G_File</title>
<polygon fill="#dbeafe" stroke="black" points="58.25,-212 58.25,-248 112.25,-248 112.25,-212 58.25,-212"/>
<text text-anchor="middle" x="85.25" y="-233" font-family="Helvetica,sans-Serif" font-size="10.00">File</text>
<text text-anchor="middle" x="85.25" y="-222" font-family="Helvetica,sans-Serif" font-size="10.00">(global)</text>
</g>
<!-- T_CT_File -->
<g id="node8" class="node">
<title>T_CT_File</title>
<polygon fill="#f7f7f7" stroke="black" points="213.75,-211 213.75,-249 279.75,-249 279.75,-211 213.75,-211"/>
<text text-anchor="middle" x="246.75" y="-237" font-family="Helvetica,sans-Serif" font-size="10.00">CT_File</text>
<polyline fill="none" stroke="black" points="213.75,-230 279.75,-230 "/>
<text text-anchor="middle" x="246.75" y="-218" font-family="Helvetica,sans-Serif" font-size="10.00">[@ Name]</text>
</g>
<!-- G_File&#45;&gt;T_CT_File -->
<g id="edge4" class="edge">
<title>G_File&#45;&gt;T_CT_File</title>
<path fill="none" stroke="#555555" d="M112.59,-230C137.25,-230 174.53,-230 203.38,-230"/>
<polygon fill="#555555" stroke="#555555" points="203.59,-233.5 213.59,-230 203.59,-226.5 203.59,-233.5"/>
</g>
<!-- L1 -->
<g id="node9" class="node">
<title>L1</title>
<polygon fill="#dbeafe" stroke="black" points="130.25,-304 40.25,-304 40.25,-268 130.25,-268 130.25,-304"/>
<text text-anchor="middle" x="85.25" y="-283.5" font-family="Helvetica,sans-Serif" font-size="10.00">global element</text>
</g>
<!-- L2 -->
<g id="node10" class="node">
<title>L2</title>
<polygon fill="#f7f7f7" stroke="black" points="287.25,-304 206.25,-304 206.25,-268 287.25,-268 287.25,-304"/>
<text text-anchor="middle" x="246.75" y="-283.5" font-family="Helvetica,sans-Serif" font-size="10.00">complexType</text>
</g>
<!-- L1&#45;&gt;L2 -->
</g>
</svg>
