<?xml version="1.0" encoding="UTF-8" standalone="no"?>
<!DOCTYPE svg PUBLIC "-//W3C//DTD SVG 1.1//EN"
 "http://www.w3.org/Graphics/SVG/1.1/DTD/svg11.dtd">
<!-- Generated by graphviz version 2.42.4 (0)
 -->
<!-- Pages: 1 -->
<svg width="1666pt" height="783pt"
 viewBox="0.00 0.00 1665.70 782.70" xmlns="http://www.w3.org/2000/svg" xmlns:xlink="http://www.w3.org/1999/xlink">
<g id="graph0" class="graph" transform="scale(1 1) rotate(0) translate(21.6 761.1)">
<polygon fill="white" stroke="transparent" points="-21.6,21.6 -21.6,-761.1 1644.1,-761.1 1644.1,21.6 -21.6,21.6"/>
<text text-anchor="middle" x="811.25" y="-726.7" font-family="Helvetica,sans-Serif" font-size="11.00">AppxManifestSchema2013_r103.xsd</text>
<text text-anchor="middle" x="811.25" y="-714.7" font-family="Helvetica,sans-Serif" font-size="11.00">http://schemas.microsoft.com/appx/2013/manifest</text>
<g id="clust1" class="cluster">
<title>cluster_legend</title>
<path fill="none" stroke="#cccccc" d="M20,-575.5C20,-575.5 860.5,-575.5 860.5,-575.5 866.5,-575.5 872.5,-581.5 872.5,-587.5 872.5,-587.5 872.5,-687.5 872.5,-687.5 872.5,-693.5 866.5,-699.5 860.5,-699.5 860.5,-699.5 20,-699.5 20,-699.5 14,-699.5 8,-693.5 8,-687.5 8,-687.5 8,-587.5 8,-587.5 8,-581.5 14,-575.5 20,-575.5"/>
<text text-anchor="middle" x="440.25" y="-688.3" font-family="Helvetica,sans-Serif" font-size="9.00">legend</text>
</g>
<!-- G_ResourcePackage -->
<g id="node1" class="node">
<title>G_ResourcePackage</title>
<polygon fill="#dbeafe" stroke="black" points="10.5,-0.5 10.5,-36.5 111.5,-36.5 111.5,-0.5 10.5,-0.5"/>
<text text-anchor="middle" x="61" y="-21.5" font-family="Helvetica,sans-Serif" font-size="10.00">ResourcePackage</text>
<text text-anchor="middle" x="61" y="-10.5" font-family="Helvetica,sans-Serif" font-size="10.00">(boolean)</text>
</g>
<!-- G_DeviceCapability -->
<g id="node2" class="node">
<title>G_DeviceCapability</title>
<polygon fill="#dbeafe" stroke="black" points="11,-55.5 11,-91.5 111,-91.5 111,-55.5 11,-55.5"/>
<text text-anchor="middle" x="61" y="-76.5" font-family="Helvetica,sans-Serif" font-size="10.00">DeviceCapability</text>
<text text-anchor="middle" x="61" y="-65.5" font-family="Helvetica,sans-Serif" font-size="10.00">(global)</text>
</g>
<!-- T_DeviceCapability -->
<g id="node7" class="node">
<title>T_DeviceCapability</title>
<polygon fill="#f7f7f7" stroke="black" points="239,-45 239,-102 344,-102 344,-45 239,-45"/>
<text text-anchor="middle" x="291.5" y="-90" font-family="Helvetica,sans-Serif" font-size="10.00">DeviceCapability</text>
<polyline fill="none" stroke="black" points="239,-83 344,-83 "/>
<text text-anchor="middle" x="291.5" y="-71" font-family="Helvetica,sans-Serif" font-size="10.00">Device CT_Device</text>
<polyline fill="none" stroke="black" points="239,-64 344,-64 "/>
<text text-anchor="middle" x="291.5" y="-52" font-family="Helvetica,sans-Serif" font-size="10.00">[@ Name]</text>
</g>
<!-- G_DeviceCapability&#45;&gt;T_DeviceCapability -->
<g id="edge1" class="edge">
<title>G_DeviceCapability&#45;&gt;T_DeviceCapability</title>
<path fill="none" stroke="#555555" d="M111.02,-73.5C145.42,-73.5 191.69,-73.5 228.63,-73.5"/>
<polygon fill="#555555" stroke="#555555" points="228.78,-77 238.78,-73.5 228.78,-70 228.78,-77"/>
</g>
<!-- G_Extension -->
<g id="node3" class="node">
<title>G_Extension</title>
<polygon fill="#dbeafe" stroke="black" points="28.5,-150.5 28.5,-186.5 93.5,-186.5 93.5,-150.5 28.5,-150.5"/>
<text text-anchor="middle" x="61" y="-171.5" font-family="Helvetica,sans-Serif" font-size="10.00">Extension</text>
<text text-anchor="middle" x="61" y="-160.5" font-family="Helvetica,sans-Serif" font-size="10.00">(global)</text>
</g>
<!-- T_Extension -->
<g id="node8" class="node">
<title>T_Extension</title>
<polygon fill="#f7f7f7" stroke="black" points="161.5,-121 161.5,-216 421.5,-216 421.5,-121 161.5,-121"/>
<text text-anchor="middle" x="291.5" y="-204" font-family="Helvetica,sans-Serif" font-size="10.00">Extension</text>
<polyline fill="none" stroke="black" points="161.5,-197 421.5,-197 "/>
<text text-anchor="middle" x="291.5" y="-185" font-family="Helvetica,sans-Serif" font-size="10.00">Contact CT_Contact?</text>
<polyline fill="none" stroke="black" points="161.5,-178 421.5,-178 "/>
<text text-anchor="middle" x="291.5" y="-166" font-family="Helvetica,sans-Serif" font-size="10.00">AppointmentsProvider CT_AppointmentsProvider?</text>
<polyline fill="none" stroke="black" points="161.5,-159 421.5,-159 "/>
<text text-anchor="middle" x="291.5" y="-147" font-family="Helvetica,sans-Serif" font-size="10.00">[@ Category]</text>
<polyline fill="none" stroke="black" points="161.5,-140 421.5,-140 "/>
<text text-anchor="middle" x="291.5" y="-128" font-family="Helvetica,sans-Serif" font-size="10.00">[AG m:ExtensionBaseAttributes]</text>
</g>
<!-- G_Extension&#45;&gt;T_Extension -->
<g id="edge2" class="edge">
<title>G_Extension&#45;&gt;T_Extension</title>
<path fill="none" stroke="#555555" d="M93.77,-168.5C109.49,-168.5 129.67,-168.5 151.1,-168.5"/>
<polygon fill="#555555" stroke="#555555" points="151.36,-172 161.36,-168.5 151.36,-165 151.36,-172"/>
</g>
<!-- G_VisualElements -->
<g id="node4" class="node">
<title>G_VisualElements</title>
<polygon fill="#dbeafe" stroke="black" points="15,-286.5 15,-322.5 107,-322.5 107,-286.5 15,-286.5"/>
<text text-anchor="middle" x="61" y="-307.5" font-family="Helvetica,sans-Serif" font-size="10.00">VisualElements</text>
<text text-anchor="middle" x="61" y="-296.5" font-family="Helvetica,sans-Serif" font-size="10.00">(global)</text>
</g>
<!-- T_VisualElements -->
<g id="node12" class="node">
<title>T_VisualElements</title>
<polygon fill="#f7f7f7" stroke="black" points="148.5,-301.5 148.5,-453.5 434.5,-453.5 434.5,-301.5 148.5,-301.5"/>
<text text-anchor="middle" x="291.5" y="-441.5" font-family="Helvetica,sans-Serif" font-size="10.00">VisualElements</text>
<polyline fill="none" stroke="black" points="148.5,-434.5 434.5,-434.5 "/>
<text text-anchor="middle" x="291.5" y="-422.5" font-family="Helvetica,sans-Serif" font-size="10.00">DefaultTile CT_DefaultTile?</text>
<polyline fill="none" stroke="black" points="148.5,-415.5 434.5,-415.5 "/>
<text text-anchor="middle" x="291.5" y="-403.5" font-family="Helvetica,sans-Serif" font-size="10.00">LockScreen CT_LockScreen?</text>
<polyline fill="none" stroke="black" points="148.5,-396.5 434.5,-396.5 "/>
<text text-anchor="middle" x="291.5" y="-384.5" font-family="Helvetica,sans-Serif" font-size="10.00">SplashScreen CT_SplashScreen?</text>
<polyline fill="none" stroke="black" points="148.5,-377.5 434.5,-377.5 "/>
<text text-anchor="middle" x="291.5" y="-365.5" font-family="Helvetica,sans-Serif" font-size="10.00">InitialRotationPreference CT_InitialRotationPreference?</text>
<polyline fill="none" stroke="black" points="148.5,-358.5 434.5,-358.5 "/>
<text text-anchor="middle" x="291.5" y="-346.5" font-family="Helvetica,sans-Serif" font-size="10.00">ApplicationView CT_ApplicationView?</text>
<polyline fill="none" stroke="black" points="148.5,-339.5 434.5,-339.5 "/>
<text text-anchor="middle" x="291.5" y="-327.5" font-family="Helvetica,sans-Serif" font-size="10.00">[@ Square150x150Logo, Square30x30Logo]</text>
<polyline fill="none" stroke="black" points="148.5,-320.5 434.5,-320.5 "/>
<text text-anchor="middle" x="291.5" y="-308.5" font-family="Helvetica,sans-Serif" font-size="10.00">[AG m:VisualElementsBaseAttributes]</text>
</g>
<!-- G_VisualElements&#45;&gt;T_VisualElements -->
<g id="edge3" class="edge">
<title>G_VisualElements&#45;&gt;T_VisualElements</title>
<path fill="none" stroke="#555555" d="M107.14,-318.92C116.8,-322.01 127.5,-325.43 138.76,-329.02"/>
<polygon fill="#555555" stroke="#555555" points="137.74,-332.37 148.33,-332.08 139.87,-325.7 137.74,-332.37"/>
</g>
<!-- IMP_types -->
<g id="node20" class="node">
<title>IMP_types</title>
<polygon fill="none" stroke="black" stroke-dasharray="5,2" points="1492.5,-328.5 1427.5,-328.5 1427.5,-292.5 1492.5,-292.5 1492.5,-328.5"/>
<text text-anchor="middle" x="1460" y="-313.5" font-family="Helvetica,sans-Serif" font-size="10.00">types</text>
<text text-anchor="middle" x="1460" y="-302.5" font-family="Helvetica,sans-Serif" font-size="10.00">(external)</text>
</g>
<!-- G_VisualElements&#45;&gt;IMP_types -->
<g id="edge14" class="edge">
<title>G_VisualElements&#45;&gt;IMP_types</title>
<path fill="none" stroke="#bbbbbb" stroke-dasharray="5,2" d="M107.2,-296.41C120.46,-294.39 135.02,-292.51 148.5,-291.5 275.26,-282.03 307.39,-290.67 434.5,-291.5 810.08,-293.94 904.07,-291.69 1279.5,-302.5 1326.61,-303.86 1380.64,-306.4 1417,-308.25"/>
<polygon fill="#bbbbbb" stroke="#bbbbbb" points="1417.07,-311.76 1427.23,-308.78 1417.43,-304.77 1417.07,-311.76"/>
</g>
<!-- G_Task -->
<g id="node5" class="node">
<title>G_Task</title>
<polygon fill="#dbeafe" stroke="black" points="34,-473.5 34,-509.5 88,-509.5 88,-473.5 34,-473.5"/>
<text text-anchor="middle" x="61" y="-494.5" font-family="Helvetica,sans-Serif" font-size="10.00">Task</text>
<text text-anchor="middle" x="61" y="-483.5" font-family="Helvetica,sans-Serif" font-size="10.00">(global)</text>
</g>
<!-- T_Task -->
<g id="node15" class="node">
<title>T_Task</title>
<polygon fill="#f7f7f7" stroke="black" points="262,-472.5 262,-510.5 321,-510.5 321,-472.5 262,-472.5"/>
<text text-anchor="middle" x="291.5" y="-498.5" font-family="Helvetica,sans-Serif" font-size="10.00">Task</text>
<polyline fill="none" stroke="black" points="262,-491.5 321,-491.5 "/>
<text text-anchor="middle" x="291.5" y="-479.5" font-family="Helvetica,sans-Serif" font-size="10.00">[@ Type]</text>
</g>
<!-- G_Task&#45;&gt;T_Task -->
<g id="edge4" class="edge">
<title>G_Task&#45;&gt;T_Task</title>
<path fill="none" stroke="#555555" d="M88.21,-491.5C128.32,-491.5 205.15,-491.5 251.72,-491.5"/>
<polygon fill="#555555" stroke="#555555" points="251.73,-495 261.73,-491.5 251.73,-488 251.73,-495"/>
</g>
<!-- T_CT_Device -->
<g id="node6" class="node">
<title>T_CT_Device</title>
<polygon fill="#f7f7f7" stroke="black" points="759,-45 759,-102 916,-102 916,-45 759,-45"/>
<text text-anchor="middle" x="837.5" y="-90" font-family="Helvetica,sans-Serif" font-size="10.00">CT_Device</text>
<polyline fill="none" stroke="black" points="759,-83 916,-83 "/>
<text text-anchor="middle" x="837.5" y="-71" font-family="Helvetica,sans-Serif" font-size="10.00">Function CT_Device.Function</text>
<polyline fill="none" stroke="black" points="759,-64 916,-64 "/>
<text text-anchor="middle" x="837.5" y="-52" font-family="Helvetica,sans-Serif" font-size="10.00">[@ Id]</text>
</g>
<!-- T_CT_Device.Function -->
<g id="node16" class="node">
<title>T_CT_Device.Function</title>
<polygon fill="#f7f7f7" stroke="black" points="1403.5,-54.5 1403.5,-92.5 1516.5,-92.5 1516.5,-54.5 1403.5,-54.5"/>
<text text-anchor="middle" x="1460" y="-80.5" font-family="Helvetica,sans-Serif" font-size="10.00">CT_Device.Function</text>
<polyline fill="none" stroke="black" points="1403.5,-73.5 1516.5,-73.5 "/>
<text text-anchor="middle" x="1460" y="-61.5" font-family="Helvetica,sans-Serif" font-size="10.00">[@ Type]</text>
</g>
<!-- T_CT_Device&#45;&gt;T_CT_Device.Function -->
<g id="edge5" class="edge">
<title>T_CT_Device&#45;&gt;T_CT_Device.Function</title>
<path fill="none" stroke="#555555" d="M916.15,-73.5C1039.41,-73.5 1277.71,-73.5 1393.14,-73.5"/>
<polygon fill="#555555" stroke="#555555" points="1393.25,-77 1403.25,-73.5 1393.25,-70 1393.25,-77"/>
<text text-anchor="middle" x="1195.5" y="-76.3" font-family="Helvetica,sans-Serif" font-size="9.00">Function</text>
</g>
<!-- T_DeviceCapability&#45;&gt;T_CT_Device -->
<g id="edge6" class="edge">
<title>T_DeviceCapability&#45;&gt;T_CT_Device</title>
<path fill="none" stroke="#555555" d="M344.17,-73.5C437.24,-73.5 634,-73.5 748.6,-73.5"/>
<polygon fill="#555555" stroke="#555555" points="748.74,-77 758.74,-73.5 748.74,-70 748.74,-77"/>
<text text-anchor="middle" x="508" y="-76.3" font-family="Helvetica,sans-Serif" font-size="9.00">Device</text>
</g>
<!-- T_CT_Contact -->
<g id="node9" class="node">
<title>T_CT_Contact</title>
<polygon fill="#f7f7f7" stroke="black" points="688,-205.5 688,-243.5 987,-243.5 987,-205.5 688,-205.5"/>
<text text-anchor="middle" x="837.5" y="-231.5" font-family="Helvetica,sans-Serif" font-size="10.00">CT_Contact</text>
<polyline fill="none" stroke="black" points="688,-224.5 987,-224.5 "/>
<text text-anchor="middle" x="837.5" y="-212.5" font-family="Helvetica,sans-Serif" font-size="10.00">ContactLaunchActions CT_Contact.ContactLaunchActions?</text>
</g>
<!-- T_Extension&#45;&gt;T_CT_Contact -->
<g id="edge7" class="edge">
<title>T_Extension&#45;&gt;T_CT_Contact</title>
<path fill="none" stroke="#555555" d="M421.77,-181.81C498.46,-189.7 596.27,-199.77 677.65,-208.15"/>
<polygon fill="#555555" stroke="#555555" points="677.69,-211.67 687.99,-209.21 678.4,-204.71 677.69,-211.67"/>
<text text-anchor="middle" x="508" y="-198.3" font-family="Helvetica,sans-Serif" font-size="9.00">Contact</text>
</g>
<!-- T_CT_AppointmentsProvider -->
<g id="node11" class="node">
<title>T_CT_AppointmentsProvider</title>
<polygon fill="#f7f7f7" stroke="black" points="581.5,-142.5 581.5,-180.5 1093.5,-180.5 1093.5,-142.5 581.5,-142.5"/>
<text text-anchor="middle" x="837.5" y="-168.5" font-family="Helvetica,sans-Serif" font-size="10.00">CT_AppointmentsProvider</text>
<polyline fill="none" stroke="black" points="581.5,-161.5 1093.5,-161.5 "/>
<text text-anchor="middle" x="837.5" y="-149.5" font-family="Helvetica,sans-Serif" font-size="10.00">AppointmentsProviderLaunchActions CT_AppointmentsProvider.AppointmentsProviderLaunchActions?</text>
</g>
<!-- T_Extension&#45;&gt;T_CT_AppointmentsProvider -->
<g id="edge8" class="edge">
<title>T_Extension&#45;&gt;T_CT_AppointmentsProvider</title>
<path fill="none" stroke="#555555" d="M421.77,-166.84C466.86,-166.26 519.25,-165.58 571.32,-164.91"/>
<polygon fill="#555555" stroke="#555555" points="571.42,-168.41 581.38,-164.78 571.33,-161.41 571.42,-168.41"/>
<text text-anchor="middle" x="508" y="-169.3" font-family="Helvetica,sans-Serif" font-size="9.00">AppointmentsProvider</text>
</g>
<!-- T_CT_Contact.ContactLaunchActions -->
<g id="node17" class="node">
<title>T_CT_Contact.ContactLaunchActions</title>
<polygon fill="#f7f7f7" stroke="black" points="1368.5,-202 1368.5,-259 1551.5,-259 1551.5,-202 1368.5,-202"/>
<text text-anchor="middle" x="1460" y="-247" font-family="Helvetica,sans-Serif" font-size="10.00">CT_Contact.ContactLaunchActions</text>
<polyline fill="none" stroke="black" points="1368.5,-240 1551.5,-240 "/>
<text text-anchor="middle" x="1460" y="-228" font-family="Helvetica,sans-Serif" font-size="10.00">LaunchAction ?</text>
<polyline fill="none" stroke="black" points="1368.5,-221 1551.5,-221 "/>
<text text-anchor="middle" x="1460" y="-209" font-family="Helvetica,sans-Serif" font-size="10.00">[@ DesiredView]</text>
</g>
<!-- T_CT_Contact&#45;&gt;T_CT_Contact.ContactLaunchActions -->
<g id="edge9" class="edge">
<title>T_CT_Contact&#45;&gt;T_CT_Contact.ContactLaunchActions</title>
<path fill="none" stroke="#555555" d="M987.13,-225.94C1101.86,-227.05 1257.51,-228.55 1358.11,-229.52"/>
<polygon fill="#555555" stroke="#555555" points="1358.24,-233.03 1368.27,-229.62 1358.31,-226.03 1358.24,-233.03"/>
<text text-anchor="middle" x="1195.5" y="-232.3" font-family="Helvetica,sans-Serif" font-size="9.00">ContactLaunchActions</text>
</g>
<!-- T_CT_ServiceId -->
<g id="node10" class="node">
<title>T_CT_ServiceId</title>
<polygon fill="#f7f7f7" stroke="black" points="21,-528.5 21,-564.5 101,-564.5 101,-528.5 21,-528.5"/>
<text text-anchor="middle" x="61" y="-544" font-family="Helvetica,sans-Serif" font-size="10.00">CT_ServiceId</text>
</g>
<!-- T_CT_AppointmentsProvider.AppointmentsProviderLaunchActions -->
<g id="node18" class="node">
<title>T_CT_AppointmentsProvider.AppointmentsProviderLaunchActions</title>
<polygon fill="#f7f7f7" stroke="black" points="1297.5,-126 1297.5,-183 1622.5,-183 1622.5,-126 1297.5,-126"/>
<text text-anchor="middle" x="1460" y="-171" font-family="Helvetica,sans-Serif" font-size="10.00">CT_AppointmentsProvider.AppointmentsProviderLaunchActions</text>
<polyline fill="none" stroke="black" points="1297.5,-164 1622.5,-164 "/>
<text text-anchor="middle" x="1460" y="-152" font-family="Helvetica,sans-Serif" font-size="10.00">LaunchAction ??</text>
<polyline fill="none" stroke="black" points="1297.5,-145 1622.5,-145 "/>
<text text-anchor="middle" x="1460" y="-133" font-family="Helvetica,sans-Serif" font-size="10.00">[@ DesiredView]</text>
</g>
<!-- T_CT_AppointmentsProvider&#45;&gt;T_CT_AppointmentsProvider.AppointmentsProviderLaunchActions -->
<g id="edge10" class="edge">
<title>T_CT_AppointmentsProvider&#45;&gt;T_CT_AppointmentsProvider.AppointmentsProviderLaunchActions</title>
<path fill="none" stroke="#555555" d="M1093.57,-158.62C1158.66,-157.89 1227.1,-157.12 1286.93,-156.44"/>
<polygon fill="#555555" stroke="#555555" points="1287.26,-159.94 1297.22,-156.33 1287.18,-152.94 1287.26,-159.94"/>
<text text-anchor="middle" x="1195.5" y="-161.3" font-family="Helvetica,sans-Serif" font-size="9.00">AppointmentsProviderLaunchActions</text>
</g>
<!-- T_CT_DefaultTile -->
<g id="node13" class="node">
<title>T_CT_DefaultTile</title>
<polygon fill="#f7f7f7" stroke="black" points="613.5,-339.5 613.5,-415.5 1061.5,-415.5 1061.5,-339.5 613.5,-339.5"/>
<text text-anchor="middle" x="837.5" y="-403.5" font-family="Helvetica,sans-Serif" font-size="10.00">CT_DefaultTile</text>
<polyline fill="none" stroke="black" points="613.5,-396.5 1061.5,-396.5 "/>
<text text-anchor="middle" x="837.5" y="-384.5" font-family="Helvetica,sans-Serif" font-size="10.00">TileUpdate CT_TileUpdate?</text>
<polyline fill="none" stroke="black" points="613.5,-377.5 1061.5,-377.5 "/>
<text text-anchor="middle" x="837.5" y="-365.5" font-family="Helvetica,sans-Serif" font-size="10.00">ShowNameOnTiles CT_DefaultTile.ShowNameOnTiles?</text>
<polyline fill="none" stroke="black" points="613.5,-358.5 1061.5,-358.5 "/>
<text text-anchor="middle" x="837.5" y="-346.5" font-family="Helvetica,sans-Serif" font-size="10.00">[@ Wide310x150Logo, Square310x310Logo, Square70x70Logo, ShortName, DefaultSize]</text>
</g>
<!-- T_VisualElements&#45;&gt;T_CT_DefaultTile -->
<g id="edge11" class="edge">
<title>T_VisualElements&#45;&gt;T_CT_DefaultTile</title>
<path fill="none" stroke="#555555" d="M434.72,-377.5C486.24,-377.5 545.89,-377.5 603.19,-377.5"/>
<polygon fill="#555555" stroke="#555555" points="603.48,-381 613.48,-377.5 603.48,-374 603.48,-381"/>
<text text-anchor="middle" x="508" y="-380.3" font-family="Helvetica,sans-Serif" font-size="9.00">DefaultTile</text>
</g>
<!-- T_CT_InitialRotationPreference -->
<g id="node14" class="node">
<title>T_CT_InitialRotationPreference</title>
<polygon fill="#f7f7f7" stroke="black" points="759.5,-434.5 759.5,-472.5 915.5,-472.5 915.5,-434.5 759.5,-434.5"/>
<text text-anchor="middle" x="837.5" y="-460.5" font-family="Helvetica,sans-Serif" font-size="10.00">CT_InitialRotationPreference</text>
<polyline fill="none" stroke="black" points="759.5,-453.5 915.5,-453.5 "/>
<text text-anchor="middle" x="837.5" y="-441.5" font-family="Helvetica,sans-Serif" font-size="10.00">Rotation CT_Rotation</text>
</g>
<!-- T_VisualElements&#45;&gt;T_CT_InitialRotationPreference -->
<g id="edge12" class="edge">
<title>T_VisualElements&#45;&gt;T_CT_InitialRotationPreference</title>
<path fill="none" stroke="#555555" d="M434.51,-401.99C481.26,-409.68 533.54,-417.88 581.5,-424.5 637.24,-432.2 700.05,-439.36 749.39,-444.64"/>
<polygon fill="#555555" stroke="#555555" points="749.07,-448.13 759.38,-445.7 749.81,-441.16 749.07,-448.13"/>
<text text-anchor="middle" x="508" y="-424.3" font-family="Helvetica,sans-Serif" font-size="9.00">InitialRotationPreference</text>
</g>
<!-- T_VisualElements&#45;&gt;IMP_types -->
<g id="edge15" class="edge">
<title>T_VisualElements&#45;&gt;IMP_types</title>
<path fill="none" stroke="#bbbbbb" stroke-dasharray="5,2" d="M434.56,-349.76C481.19,-341.76 533.39,-333.99 581.5,-329.5 902.1,-299.56 1291.3,-306.1 1417.42,-309.3"/>
<polygon fill="#bbbbbb" stroke="#bbbbbb" points="1417.34,-312.8 1427.43,-309.56 1417.52,-305.8 1417.34,-312.8"/>
</g>
<!-- T_CT_DefaultTile.ShowNameOnTiles -->
<g id="node19" class="node">
<title>T_CT_DefaultTile.ShowNameOnTiles</title>
<polygon fill="#f7f7f7" stroke="black" points="1368,-358.5 1368,-396.5 1552,-396.5 1552,-358.5 1368,-358.5"/>
<text text-anchor="middle" x="1460" y="-384.5" font-family="Helvetica,sans-Serif" font-size="10.00">CT_DefaultTile.ShowNameOnTiles</text>
<polyline fill="none" stroke="black" points="1368,-377.5 1552,-377.5 "/>
<text text-anchor="middle" x="1460" y="-365.5" font-family="Helvetica,sans-Serif" font-size="10.00">ShowOn ?</text>
</g>
<!-- T_CT_DefaultTile&#45;&gt;T_CT_DefaultTile.ShowNameOnTiles -->
<g id="edge13" class="edge">
<title>T_CT_DefaultTile&#45;&gt;T_CT_DefaultTile.ShowNameOnTiles</title>
<path fill="none" stroke="#555555" d="M1061.64,-377.5C1162.93,-377.5 1277.7,-377.5 1357.76,-377.5"/>
<polygon fill="#555555" stroke="#555555" points="1357.84,-381 1367.84,-377.5 1357.84,-374 1357.84,-381"/>
<text text-anchor="middle" x="1195.5" y="-380.3" font-family="Helvetica,sans-Serif" font-size="9.00">ShowNameOnTiles</text>
</g>
<!-- T_CT_DefaultTile&#45;&gt;IMP_types -->
<g id="edge16" class="edge">
<title>T_CT_DefaultTile&#45;&gt;IMP_types</title>
<path fill="none" stroke="#bbbbbb" stroke-dasharray="5,2" d="M1061.64,-353.41C1192.28,-339.3 1345.35,-322.77 1417.44,-314.99"/>
<polygon fill="#bbbbbb" stroke="#bbbbbb" points="1417.91,-318.46 1427.48,-313.9 1417.16,-311.5 1417.91,-318.46"/>
</g>
<!-- IMP_manifest -->
<g id="node21" class="node">
<title>IMP_manifest</title>
<polygon fill="none" stroke="black" stroke-dasharray="5,2" points="1492.5,-471.5 1427.5,-471.5 1427.5,-435.5 1492.5,-435.5 1492.5,-471.5"/>
<text text-anchor="middle" x="1460" y="-456.5" font-family="Helvetica,sans-Serif" font-size="10.00">manifest</text>
<text text-anchor="middle" x="1460" y="-445.5" font-family="Helvetica,sans-Serif" font-size="10.00">(external)</text>
</g>
<!-- T_CT_InitialRotationPreference&#45;&gt;IMP_manifest -->
<g id="edge17" class="edge">
<title>T_CT_InitialRotationPreference&#45;&gt;IMP_manifest</title>
<path fill="none" stroke="#bbbbbb" stroke-dasharray="5,2" d="M915.52,-453.5C1047.94,-453.5 1314.42,-453.5 1417.22,-453.5"/>
<polygon fill="#bbbbbb" stroke="#bbbbbb" points="1417.22,-457 1427.22,-453.5 1417.22,-450 1417.22,-457"/>
</g>
<!-- L1 -->
<g id="node22" class="node">
<title>L1</title>
<polygon fill="#dbeafe" stroke="black" points="106,-673.5 16,-673.5 16,-637.5 106,-637.5 106,-673.5"/>
<text text-anchor="middle" x="61" y="-653" font-family="Helvetica,sans-Serif" font-size="10.00">global element</text>
</g>
<!-- L2 -->
<g id="node23" class="node">
<title>L2</title>
<polygon fill="#f7f7f7" stroke="black" points="332,-672.5 251,-672.5 251,-636.5 332,-636.5 332,-672.5"/>
<text text-anchor="middle" x="291.5" y="-652" font-family="Helvetica,sans-Serif" font-size="10.00">complexType</text>
</g>
<!-- L1&#45;&gt;L2 -->
<!-- L3 -->
<g id="node25" class="node">
<title>L3</title>
<polygon fill="#f7f7f7" stroke="black" points="810.5,-636.5 810.5,-672.5 864.5,-672.5 864.5,-636.5 810.5,-636.5"/>
<text text-anchor="middle" x="837.5" y="-652" font-family="Helvetica,sans-Serif" font-size="10.00">L3</text>
</g>
<!-- L2&#45;&gt;L3 -->
<!-- L4 -->
<g id="node24" class="node">
<title>L4</title>
<polygon fill="none" stroke="black" stroke-dasharray="5,2" points="96.5,-619.5 25.5,-619.5 25.5,-583.5 96.5,-583.5 96.5,-619.5"/>
<text text-anchor="middle" x="61" y="-599" font-family="Helvetica,sans-Serif" font-size="10.00">external ns</text>
</g>
</g>
</svg>
