<?xml version="1.0" encoding="UTF-8" standalone="no"?>
<!DOCTYPE svg PUBLIC "-//W3C//DTD SVG 1.1//EN"
 "http://www.w3.org/Graphics/SVG/1.1/DTD/svg11.dtd">
<!-- Generated by graphviz version 2.42.4 (0)
 -->
<!-- Pages: 1 -->
<svg width="451pt" height="363pt"
 viewBox="0.00 0.00 451.20 362.70" xmlns="http://www.w3.org/2000/svg" xmlns:xlink="http://www.w3.org/1999/xlink">
<g id="graph0" class="graph" transform="scale(1 1) rotate(0) translate(21.6 341.1)">
<polygon fill="white" stroke="transparent" points="-21.6,21.6 -21.6,-341.1 429.6,-341.1 429.6,21.6 -21.6,21.6"/>
<text text-anchor="middle" x="204" y="-306.7" font-family="Helvetica,sans-Serif" font-size="11.00">AppxManifest_Deployment_2.xsd</text>
<text text-anchor="middle" x="204" y="-294.7" font-family="Helvetica,sans-Serif" font-size="11.00">http://schemas.microsoft.com/appx/manifest/deployment/windows10/2</text>
<g id="clust1" class="cluster">
<title>cluster_legend</title>
<path fill="none" stroke="#cccccc" d="M92,-155.5C92,-155.5 300.5,-155.5 300.5,-155.5 306.5,-155.5 312.5,-161.5 312.5,-167.5 312.5,-167.5 312.5,-267.5 312.5,-267.5 312.5,-273.5 306.5,-279.5 300.5,-279.5 300.5,-279.5 92,-279.5 92,-279.5 86,-279.5 80,-273.5 80,-267.5 80,-267.5 80,-167.5 80,-167.5 80,-161.5 86,-155.5 92,-155.5"/>
<text text-anchor="middle" x="196.25" y="-268.3" font-family="Helvetica,sans-Serif" font-size="9.00">legend</text>
</g>
<!-- G_StageWhileInUse -->
<g id="node1" class="node">
<title>G_StageWhileInUse</title>
<polygon fill="#dbeafe" stroke="black" points="83,-0.5 83,-36.5 183,-36.5 183,-0.5 83,-0.5"/>
<text text-anchor="middle" x="133" y="-21.5" font-family="Helvetica,sans-Serif" font-size="10.00">StageWhileInUse</text>
<text text-anchor="middle" x="133" y="-10.5" font-family="Helvetica,sans-Serif" font-size="10.00">(global)</text>
</g>
<!-- T_ST_StageWhileInUse -->
<g id="node2" class="node">
<title>T_ST_StageWhileInUse</title>
<polygon fill="#f3e8ff" stroke="black" points="219,-0.5 219,-36.5 336,-36.5 336,-0.5 219,-0.5"/>
<text text-anchor="middle" x="277.5" y="-21.5" font-family="Helvetica,sans-Serif" font-size="10.00">ST_StageWhileInUse</text>
<text text-anchor="middle" x="277.5" y="-10.5" font-family="Helvetica,sans-Serif" font-size="10.00">(simple)</text>
</g>
<!-- G_StageWhileInUse&#45;&gt;T_ST_StageWhileInUse -->
<g id="edge1" class="edge">
<title>G_StageWhileInUse&#45;&gt;T_ST_StageWhileInUse</title>
<path fill="none" stroke="#555555" d="M183.04,-18.5C191.26,-18.5 199.91,-18.5 208.5,-18.5"/>
<polygon fill="#555555" stroke="#555555" points="208.53,-22 218.53,-18.5 208.53,-15 208.53,-22"/>
</g>
<!-- IMP_types -->
<g id="node3" class="node">
<title>IMP_types</title>
<polygon fill="none" stroke="black" stroke-dasharray="5,2" points="165.5,-91.5 100.5,-91.5 100.5,-55.5 165.5,-55.5 165.5,-91.5"/>
<text text-anchor="middle" x="133" y="-76.5" font-family="Helvetica,sans-Serif" font-size="10.00">types</text>
<text text-anchor="middle" x="133" y="-65.5" font-family="Helvetica,sans-Serif" font-size="10.00">(external)</text>
</g>
<!-- IMP_windows10 -->
<g id="node4" class="node">
<title>IMP_windows10</title>
<polygon fill="none" stroke="black" stroke-dasharray="5,2" points="168.5,-145.5 97.5,-145.5 97.5,-109.5 168.5,-109.5 168.5,-145.5"/>
<text text-anchor="middle" x="133" y="-130.5" font-family="Helvetica,sans-Serif" font-size="10.00">windows10</text>
<text text-anchor="middle" x="133" y="-119.5" font-family="Helvetica,sans-Serif" font-size="10.00">(external)</text>
</g>
<!-- L1 -->
<g id="node5" class="node">
<title>L1</title>
<polygon fill="#dbeafe" stroke="black" points="178,-253.5 88,-253.5 88,-217.5 178,-217.5 178,-253.5"/>
<text text-anchor="middle" x="133" y="-233" font-family="Helvetica,sans-Serif" font-size="10.00">global element</text>
</g>
<!-- L2 -->
<g id="node7" class="node">
<title>L2</title>
<polygon fill="#f7f7f7" stroke="black" points="250.5,-216.5 250.5,-252.5 304.5,-252.5 304.5,-216.5 250.5,-216.5"/>
<text text-anchor="middle" x="277.5" y="-232" font-family="Helvetica,sans-Serif" font-size="10.00">L2</text>
</g>
<!-- L1&#45;&gt;L2 -->
<!-- L3 -->
<g id="node6" class="node">
<title>L3</title>
<polygon fill="#f3e8ff" stroke="black" points="169,-199.5 97,-199.5 97,-163.5 169,-163.5 169,-199.5"/>
<text text-anchor="middle" x="133" y="-179" font-family="Helvetica,sans-Serif" font-size="10.00">simpleType</text>
</g>
</g>
</svg>
