<?xml version="1.0" encoding="UTF-8" standalone="no"?>
<!DOCTYPE svg PUBLIC "-//W3C//DTD SVG 1.1//EN"
 "http://www.w3.org/Graphics/SVG/1.1/DTD/svg11.dtd">
<!-- Generated by graphviz version 2.42.4 (0)
 -->
<!-- Pages: 1 -->
<svg width="1915pt" height="901pt"
 viewBox="0.00 0.00 1915.20 900.70" xmlns="http://www.w3.org/2000/svg" xmlns:xlink="http://www.w3.org/1999/xlink">
<g id="graph0" class="graph" transform="scale(1 1) rotate(0) translate(21.6 879.1)">
<polygon fill="white" stroke="transparent" points="-21.6,21.6 -21.6,-879.1 1893.6,-879.1 1893.6,21.6 -21.6,21.6"/>
<text text-anchor="middle" x="936" y="-844.7" font-family="Helvetica,sans-Serif" font-size="11.00">AppxManifest_Desktop_3.xsd</text>
<text text-anchor="middle" x="936" y="-832.7" font-family="Helvetica,sans-Serif" font-size="11.00">http://schemas.microsoft.com/appx/manifest/desktop/windows10/3</text>
<g id="clust1" class="cluster">
<title>cluster_legend</title>
<path fill="none" stroke="#cccccc" d="M20,-747.5C20,-747.5 934,-747.5 934,-747.5 940,-747.5 946,-753.5 946,-759.5 946,-759.5 946,-805.5 946,-805.5 946,-811.5 940,-817.5 934,-817.5 934,-817.5 20,-817.5 20,-817.5 14,-817.5 8,-811.5 8,-805.5 8,-805.5 8,-759.5 8,-759.5 8,-753.5 14,-747.5 20,-747.5"/>
<text text-anchor="middle" x="477" y="-806.3" font-family="Helvetica,sans-Serif" font-size="9.00">legend</text>
</g>
<!-- G_Extension -->
<g id="node1" class="node">
<title>G_Extension</title>
<polygon fill="#dbeafe" stroke="black" points="28.5,-109.5 28.5,-145.5 93.5,-145.5 93.5,-109.5 28.5,-109.5"/>
<text text-anchor="middle" x="61" y="-130.5" font-family="Helvetica,sans-Serif" font-size="10.00">Extension</text>
<text text-anchor="middle" x="61" y="-119.5" font-family="Helvetica,sans-Serif" font-size="10.00">(global)</text>
</g>
<!-- T_Extension -->
<g id="node3" class="node">
<title>T_Extension</title>
<polygon fill="#f7f7f7" stroke="black" points="143,-80 143,-175 649,-175 649,-80 143,-80"/>
<text text-anchor="middle" x="396" y="-163" font-family="Helvetica,sans-Serif" font-size="10.00">Extension</text>
<polyline fill="none" stroke="black" points="143,-156 649,-156 "/>
<text text-anchor="middle" x="396" y="-144" font-family="Helvetica,sans-Serif" font-size="10.00">CloudFiles CT_CloudFiles?</text>
<polyline fill="none" stroke="black" points="143,-137 649,-137 "/>
<text text-anchor="middle" x="396" y="-125" font-family="Helvetica,sans-Serif" font-size="10.00">AutoPlayHandler CT_AutoPlayHandler?</text>
<polyline fill="none" stroke="black" points="143,-118 649,-118 "/>
<text text-anchor="middle" x="396" y="-106" font-family="Helvetica,sans-Serif" font-size="10.00">[@ Category]</text>
<polyline fill="none" stroke="black" points="143,-99 649,-99 "/>
<text text-anchor="middle" x="396" y="-87" font-family="Helvetica,sans-Serif" font-size="10.00">[AG t:ExtensionBaseAttributes, uap10:TrustLevelGroup, uap11:ManganeseExtensionAttributesGroup]</text>
</g>
<!-- G_Extension&#45;&gt;T_Extension -->
<g id="edge1" class="edge">
<title>G_Extension&#45;&gt;T_Extension</title>
<path fill="none" stroke="#555555" d="M93.63,-127.5C104.62,-127.5 117.96,-127.5 132.86,-127.5"/>
<polygon fill="#555555" stroke="#555555" points="132.86,-131 142.86,-127.5 132.86,-124 132.86,-131"/>
</g>
<!-- G_PropertyLists -->
<g id="node2" class="node">
<title>G_PropertyLists</title>
<polygon fill="#dbeafe" stroke="black" points="21,-321.5 21,-357.5 101,-357.5 101,-321.5 21,-321.5"/>
<text text-anchor="middle" x="61" y="-342.5" font-family="Helvetica,sans-Serif" font-size="10.00">PropertyLists</text>
<text text-anchor="middle" x="61" y="-331.5" font-family="Helvetica,sans-Serif" font-size="10.00">(global)</text>
</g>
<!-- T_PropertyLists -->
<g id="node10" class="node">
<title>T_PropertyLists</title>
<polygon fill="#f7f7f7" stroke="black" points="294.5,-320.5 294.5,-358.5 497.5,-358.5 497.5,-320.5 294.5,-320.5"/>
<text text-anchor="middle" x="396" y="-346.5" font-family="Helvetica,sans-Serif" font-size="10.00">PropertyLists</text>
<polyline fill="none" stroke="black" points="294.5,-339.5 497.5,-339.5 "/>
<text text-anchor="middle" x="396" y="-327.5" font-family="Helvetica,sans-Serif" font-size="10.00">PropertyList PropertyLists.PropertyList</text>
</g>
<!-- G_PropertyLists&#45;&gt;T_PropertyLists -->
<g id="edge2" class="edge">
<title>G_PropertyLists&#45;&gt;T_PropertyLists</title>
<path fill="none" stroke="#555555" d="M101.18,-339.5C145.98,-339.5 221.27,-339.5 284.43,-339.5"/>
<polygon fill="#555555" stroke="#555555" points="284.45,-343 294.45,-339.5 284.45,-336 284.45,-343"/>
</g>
<!-- T_CT_CloudFiles -->
<g id="node4" class="node">
<title>T_CT_CloudFiles</title>
<polygon fill="#f7f7f7" stroke="black" points="760,-111.5 760,-301.5 1044,-301.5 1044,-111.5 760,-111.5"/>
<text text-anchor="middle" x="902" y="-289.5" font-family="Helvetica,sans-Serif" font-size="10.00">CT_CloudFiles</text>
<polyline fill="none" stroke="black" points="760,-282.5 1044,-282.5 "/>
<text text-anchor="middle" x="902" y="-270.5" font-family="Helvetica,sans-Serif" font-size="10.00">CustomStateHandler CT_CloudFilesHandler?</text>
<polyline fill="none" stroke="black" points="760,-263.5 1044,-263.5 "/>
<text text-anchor="middle" x="902" y="-251.5" font-family="Helvetica,sans-Serif" font-size="10.00">ThumbnailProviderHandler CT_CloudFilesHandler?</text>
<polyline fill="none" stroke="black" points="760,-244.5 1044,-244.5 "/>
<text text-anchor="middle" x="902" y="-232.5" font-family="Helvetica,sans-Serif" font-size="10.00">ExtendedPropertyHandler CT_CloudFilesHandler?</text>
<polyline fill="none" stroke="black" points="760,-225.5 1044,-225.5 "/>
<text text-anchor="middle" x="902" y="-213.5" font-family="Helvetica,sans-Serif" font-size="10.00">BannersHandler CT_CloudFilesHandler?</text>
<polyline fill="none" stroke="black" points="760,-206.5 1044,-206.5 "/>
<text text-anchor="middle" x="902" y="-194.5" font-family="Helvetica,sans-Serif" font-size="10.00">? ??</text>
<polyline fill="none" stroke="black" points="760,-187.5 1044,-187.5 "/>
<text text-anchor="middle" x="902" y="-175.5" font-family="Helvetica,sans-Serif" font-size="10.00">CloudFilesContextMenus CT_CloudFilesContextMenus?</text>
<polyline fill="none" stroke="black" points="760,-168.5 1044,-168.5 "/>
<text text-anchor="middle" x="902" y="-156.5" font-family="Helvetica,sans-Serif" font-size="10.00">? ??</text>
<polyline fill="none" stroke="black" points="760,-149.5 1044,-149.5 "/>
<text text-anchor="middle" x="902" y="-137.5" font-family="Helvetica,sans-Serif" font-size="10.00">? ??</text>
<polyline fill="none" stroke="black" points="760,-130.5 1044,-130.5 "/>
<text text-anchor="middle" x="902" y="-118.5" font-family="Helvetica,sans-Serif" font-size="10.00">[@ IconResource]</text>
</g>
<!-- T_Extension&#45;&gt;T_CT_CloudFiles -->
<g id="edge3" class="edge">
<title>T_Extension&#45;&gt;T_CT_CloudFiles</title>
<path fill="none" stroke="#555555" d="M649.37,-167.06C683.64,-172.43 717.91,-177.8 749.63,-182.77"/>
<polygon fill="#555555" stroke="#555555" points="749.42,-186.28 759.84,-184.37 750.5,-179.37 749.42,-186.28"/>
<text text-anchor="middle" x="704.5" y="-184.3" font-family="Helvetica,sans-Serif" font-size="9.00">CloudFiles</text>
</g>
<!-- T_CT_AutoPlayHandler -->
<g id="node7" class="node">
<title>T_CT_AutoPlayHandler</title>
<polygon fill="#f7f7f7" stroke="black" points="778,-53.5 778,-91.5 1026,-91.5 1026,-53.5 778,-53.5"/>
<text text-anchor="middle" x="902" y="-79.5" font-family="Helvetica,sans-Serif" font-size="10.00">CT_AutoPlayHandler</text>
<polyline fill="none" stroke="black" points="778,-72.5 1026,-72.5 "/>
<text text-anchor="middle" x="902" y="-60.5" font-family="Helvetica,sans-Serif" font-size="10.00">InvokeAction CT_AutoPlayHandler.InvokeAction</text>
</g>
<!-- T_Extension&#45;&gt;T_CT_AutoPlayHandler -->
<g id="edge4" class="edge">
<title>T_Extension&#45;&gt;T_CT_AutoPlayHandler</title>
<path fill="none" stroke="#555555" d="M649.37,-99.96C690.27,-95.5 731.16,-91.03 767.72,-87.04"/>
<polygon fill="#555555" stroke="#555555" points="768.35,-90.5 777.92,-85.93 767.59,-83.54 768.35,-90.5"/>
<text text-anchor="middle" x="704.5" y="-100.3" font-family="Helvetica,sans-Serif" font-size="9.00">AutoPlayHandler</text>
</g>
<!-- T_CT_CloudFilesHandler -->
<g id="node5" class="node">
<title>T_CT_CloudFilesHandler</title>
<polygon fill="#f7f7f7" stroke="black" points="1293.5,-205.5 1293.5,-243.5 1416.5,-243.5 1416.5,-205.5 1293.5,-205.5"/>
<text text-anchor="middle" x="1355" y="-231.5" font-family="Helvetica,sans-Serif" font-size="10.00">CT_CloudFilesHandler</text>
<polyline fill="none" stroke="black" points="1293.5,-224.5 1416.5,-224.5 "/>
<text text-anchor="middle" x="1355" y="-212.5" font-family="Helvetica,sans-Serif" font-size="10.00">[@ Clsid]</text>
</g>
<!-- T_CT_CloudFiles&#45;&gt;T_CT_CloudFilesHandler -->
<g id="edge5" class="edge">
<title>T_CT_CloudFiles&#45;&gt;T_CT_CloudFilesHandler</title>
<path fill="none" stroke="#555555" d="M1044.32,-248.63C1050.26,-249.72 1056.17,-250.69 1062,-251.5 1137.32,-261.95 1224.15,-251.02 1283.41,-240.09"/>
<polygon fill="#555555" stroke="#555555" points="1284.24,-243.5 1293.42,-238.2 1282.94,-236.62 1284.24,-243.5"/>
<text text-anchor="middle" x="1122.5" y="-259.3" font-family="Helvetica,sans-Serif" font-size="9.00">CustomStateHandler</text>
</g>
<!-- T_CT_CloudFiles&#45;&gt;T_CT_CloudFilesHandler -->
<g id="edge6" class="edge">
<title>T_CT_CloudFiles&#45;&gt;T_CT_CloudFilesHandler</title>
<path fill="none" stroke="#555555" d="M1044.29,-217.57C1050.27,-217.91 1056.19,-218.22 1062,-218.5 1137.37,-222.12 1223.79,-223.56 1282.94,-224.13"/>
<polygon fill="#555555" stroke="#555555" points="1283.26,-227.63 1293.29,-224.22 1283.32,-220.63 1283.26,-227.63"/>
<text text-anchor="middle" x="1122.5" y="-226.3" font-family="Helvetica,sans-Serif" font-size="9.00">ThumbnailProviderHandler</text>
</g>
<!-- T_CT_CloudFiles&#45;&gt;T_CT_CloudFilesHandler -->
<g id="edge7" class="edge">
<title>T_CT_CloudFiles&#45;&gt;T_CT_CloudFilesHandler</title>
<path fill="none" stroke="#555555" d="M1044.08,-204.38C1088.55,-204.41 1137.85,-205.18 1183,-207.5 1215.93,-209.19 1252.29,-212.59 1282.99,-215.91"/>
<polygon fill="#555555" stroke="#555555" points="1282.84,-219.41 1293.17,-217.03 1283.61,-212.45 1282.84,-219.41"/>
<text text-anchor="middle" x="1122.5" y="-210.3" font-family="Helvetica,sans-Serif" font-size="9.00">ExtendedPropertyHandler</text>
</g>
<!-- T_CT_CloudFiles&#45;&gt;T_CT_CloudFilesHandler -->
<g id="edge8" class="edge">
<title>T_CT_CloudFiles&#45;&gt;T_CT_CloudFilesHandler</title>
<path fill="none" stroke="#555555" d="M1044.26,-191.54C1050.25,-191.14 1056.18,-190.79 1062,-190.5 1115.71,-187.8 1129.48,-185.23 1183,-190.5 1216.29,-193.78 1252.7,-200.56 1283.34,-207.21"/>
<polygon fill="#555555" stroke="#555555" points="1282.97,-210.72 1293.49,-209.46 1284.49,-203.88 1282.97,-210.72"/>
<text text-anchor="middle" x="1122.5" y="-193.3" font-family="Helvetica,sans-Serif" font-size="9.00">BannersHandler</text>
</g>
<!-- T_CT_CloudFilesContextMenus -->
<g id="node6" class="node">
<title>T_CT_CloudFilesContextMenus</title>
<polygon fill="#f7f7f7" stroke="black" points="1252.5,-123.5 1252.5,-161.5 1457.5,-161.5 1457.5,-123.5 1252.5,-123.5"/>
<text text-anchor="middle" x="1355" y="-149.5" font-family="Helvetica,sans-Serif" font-size="10.00">CT_CloudFilesContextMenus</text>
<polyline fill="none" stroke="black" points="1252.5,-142.5 1457.5,-142.5 "/>
<text text-anchor="middle" x="1355" y="-130.5" font-family="Helvetica,sans-Serif" font-size="10.00">Verb CT_CloudFilesContextMenus.Verb</text>
</g>
<!-- T_CT_CloudFiles&#45;&gt;T_CT_CloudFilesContextMenus -->
<g id="edge9" class="edge">
<title>T_CT_CloudFiles&#45;&gt;T_CT_CloudFilesContextMenus</title>
<path fill="none" stroke="#555555" d="M1044.18,-176.44C1050.19,-175.4 1056.15,-174.42 1062,-173.5 1121.27,-164.23 1187.75,-156.93 1242.29,-151.75"/>
<polygon fill="#555555" stroke="#555555" points="1242.7,-155.23 1252.33,-150.81 1242.04,-148.26 1242.7,-155.23"/>
<text text-anchor="middle" x="1122.5" y="-176.3" font-family="Helvetica,sans-Serif" font-size="9.00">CloudFilesContextMenus</text>
</g>
<!-- T_CT_CloudFilesContextMenus.Verb -->
<g id="node12" class="node">
<title>T_CT_CloudFilesContextMenus.Verb</title>
<polygon fill="#f7f7f7" stroke="black" points="1637,-123.5 1637,-161.5 1817,-161.5 1817,-123.5 1637,-123.5"/>
<text text-anchor="middle" x="1727" y="-149.5" font-family="Helvetica,sans-Serif" font-size="10.00">CT_CloudFilesContextMenus.Verb</text>
<polyline fill="none" stroke="black" points="1637,-142.5 1817,-142.5 "/>
<text text-anchor="middle" x="1727" y="-130.5" font-family="Helvetica,sans-Serif" font-size="10.00">[@ Id, Clsid]</text>
</g>
<!-- T_CT_CloudFilesContextMenus&#45;&gt;T_CT_CloudFilesContextMenus.Verb -->
<g id="edge10" class="edge">
<title>T_CT_CloudFilesContextMenus&#45;&gt;T_CT_CloudFilesContextMenus.Verb</title>
<path fill="none" stroke="#555555" d="M1457.59,-142.5C1510.24,-142.5 1574.29,-142.5 1626.61,-142.5"/>
<polygon fill="#555555" stroke="#555555" points="1626.91,-146 1636.91,-142.5 1626.91,-139 1626.91,-146"/>
<text text-anchor="middle" x="1545.5" y="-145.3" font-family="Helvetica,sans-Serif" font-size="9.00">Verb</text>
</g>
<!-- T_CT_AutoPlayHandler.InvokeAction -->
<g id="node13" class="node">
<title>T_CT_AutoPlayHandler.InvokeAction</title>
<polygon fill="#f7f7f7" stroke="black" points="1201,-28.5 1201,-104.5 1509,-104.5 1509,-28.5 1201,-28.5"/>
<text text-anchor="middle" x="1355" y="-92.5" font-family="Helvetica,sans-Serif" font-size="10.00">CT_AutoPlayHandler.InvokeAction</text>
<polyline fill="none" stroke="black" points="1201,-85.5 1509,-85.5 "/>
<text text-anchor="middle" x="1355" y="-73.5" font-family="Helvetica,sans-Serif" font-size="10.00">Content CT_Content?</text>
<polyline fill="none" stroke="black" points="1201,-66.5 1509,-66.5 "/>
<text text-anchor="middle" x="1355" y="-54.5" font-family="Helvetica,sans-Serif" font-size="10.00">Device CT_Device?</text>
<polyline fill="none" stroke="black" points="1201,-47.5 1509,-47.5 "/>
<text text-anchor="middle" x="1355" y="-35.5" font-family="Helvetica,sans-Serif" font-size="10.00">[@ ActionDisplayName, ProviderDisplayName, DefaultIcon]</text>
</g>
<!-- T_CT_AutoPlayHandler&#45;&gt;T_CT_AutoPlayHandler.InvokeAction -->
<g id="edge11" class="edge">
<title>T_CT_AutoPlayHandler&#45;&gt;T_CT_AutoPlayHandler.InvokeAction</title>
<path fill="none" stroke="#555555" d="M1026.24,-70.86C1076.94,-70.19 1136.39,-69.4 1190.64,-68.67"/>
<polygon fill="#555555" stroke="#555555" points="1190.75,-72.17 1200.7,-68.54 1190.66,-65.17 1190.75,-72.17"/>
<text text-anchor="middle" x="1122.5" y="-73.3" font-family="Helvetica,sans-Serif" font-size="9.00">InvokeAction</text>
</g>
<!-- T_CT_Content -->
<g id="node8" class="node">
<title>T_CT_Content</title>
<polygon fill="#f7f7f7" stroke="black" points="1582,-57.5 1582,-95.5 1872,-95.5 1872,-57.5 1582,-57.5"/>
<text text-anchor="middle" x="1727" y="-83.5" font-family="Helvetica,sans-Serif" font-size="10.00">CT_Content</text>
<polyline fill="none" stroke="black" points="1582,-76.5 1872,-76.5 "/>
<text text-anchor="middle" x="1727" y="-64.5" font-family="Helvetica,sans-Serif" font-size="10.00">[@ ContentEvent, Verb, DropTargetHandler, Parameters]</text>
</g>
<!-- T_CT_Device -->
<g id="node9" class="node">
<title>T_CT_Device</title>
<polygon fill="#f7f7f7" stroke="black" points="1601,-0.5 1601,-38.5 1853,-38.5 1853,-0.5 1601,-0.5"/>
<text text-anchor="middle" x="1727" y="-26.5" font-family="Helvetica,sans-Serif" font-size="10.00">CT_Device</text>
<polyline fill="none" stroke="black" points="1601,-19.5 1853,-19.5 "/>
<text text-anchor="middle" x="1727" y="-7.5" font-family="Helvetica,sans-Serif" font-size="10.00">[@ DeviceEvent, HWEventHandler, InitCmdLine]</text>
</g>
<!-- T_PropertyLists.PropertyList -->
<g id="node14" class="node">
<title>T_PropertyLists.PropertyList</title>
<polygon fill="#f7f7f7" stroke="black" points="831,-320.5 831,-358.5 973,-358.5 973,-320.5 831,-320.5"/>
<text text-anchor="middle" x="902" y="-346.5" font-family="Helvetica,sans-Serif" font-size="10.00">PropertyLists.PropertyList</text>
<polyline fill="none" stroke="black" points="831,-339.5 973,-339.5 "/>
<text text-anchor="middle" x="902" y="-327.5" font-family="Helvetica,sans-Serif" font-size="10.00">[@ Property, Value]</text>
</g>
<!-- T_PropertyLists&#45;&gt;T_PropertyLists.PropertyList -->
<g id="edge12" class="edge">
<title>T_PropertyLists&#45;&gt;T_PropertyLists.PropertyList</title>
<path fill="none" stroke="#555555" d="M497.78,-339.5C592.7,-339.5 733.04,-339.5 820.64,-339.5"/>
<polygon fill="#555555" stroke="#555555" points="820.79,-343 830.79,-339.5 820.79,-336 820.79,-343"/>
<text text-anchor="middle" x="704.5" y="-342.3" font-family="Helvetica,sans-Serif" font-size="9.00">PropertyList</text>
</g>
<!-- T_ST_Property -->
<g id="node11" class="node">
<title>T_ST_Property</title>
<polygon fill="#f3e8ff" stroke="black" points="23.5,-376.5 23.5,-412.5 98.5,-412.5 98.5,-376.5 23.5,-376.5"/>
<text text-anchor="middle" x="61" y="-397.5" font-family="Helvetica,sans-Serif" font-size="10.00">ST_Property</text>
<text text-anchor="middle" x="61" y="-386.5" font-family="Helvetica,sans-Serif" font-size="10.00">(simple)</text>
</g>
<!-- T_CT_AutoPlayHandler.InvokeAction&#45;&gt;T_CT_Content -->
<g id="edge13" class="edge">
<title>T_CT_AutoPlayHandler.InvokeAction&#45;&gt;T_CT_Content</title>
<path fill="none" stroke="#555555" d="M1509.16,-70.64C1529.84,-71.2 1551.06,-71.77 1571.75,-72.33"/>
<polygon fill="#555555" stroke="#555555" points="1571.77,-75.83 1581.86,-72.6 1571.96,-68.84 1571.77,-75.83"/>
<text text-anchor="middle" x="1545.5" y="-75.3" font-family="Helvetica,sans-Serif" font-size="9.00">Content</text>
</g>
<!-- T_CT_AutoPlayHandler.InvokeAction&#45;&gt;T_CT_Device -->
<g id="edge14" class="edge">
<title>T_CT_AutoPlayHandler.InvokeAction&#45;&gt;T_CT_Device</title>
<path fill="none" stroke="#555555" d="M1509.16,-47.04C1536.22,-43.61 1564.22,-40.05 1590.74,-36.68"/>
<polygon fill="#555555" stroke="#555555" points="1591.35,-40.13 1600.83,-35.4 1590.47,-33.19 1591.35,-40.13"/>
<text text-anchor="middle" x="1545.5" y="-47.3" font-family="Helvetica,sans-Serif" font-size="9.00">Device</text>
</g>
<!-- IMP_types -->
<g id="node15" class="node">
<title>IMP_types</title>
<polygon fill="none" stroke="black" stroke-dasharray="5,2" points="93.5,-467.5 28.5,-467.5 28.5,-431.5 93.5,-431.5 93.5,-467.5"/>
<text text-anchor="middle" x="61" y="-452.5" font-family="Helvetica,sans-Serif" font-size="10.00">types</text>
<text text-anchor="middle" x="61" y="-441.5" font-family="Helvetica,sans-Serif" font-size="10.00">(external)</text>
</g>
<!-- IMP_windows10 -->
<g id="node16" class="node">
<title>IMP_windows10</title>
<polygon fill="none" stroke="black" stroke-dasharray="5,2" points="96.5,-521.5 25.5,-521.5 25.5,-485.5 96.5,-485.5 96.5,-521.5"/>
<text text-anchor="middle" x="61" y="-506.5" font-family="Helvetica,sans-Serif" font-size="10.00">windows10</text>
<text text-anchor="middle" x="61" y="-495.5" font-family="Helvetica,sans-Serif" font-size="10.00">(external)</text>
</g>
<!-- IMP_4 -->
<g id="node17" class="node">
<title>IMP_4</title>
<polygon fill="none" stroke="black" stroke-dasharray="5,2" points="93.5,-575.5 28.5,-575.5 28.5,-539.5 93.5,-539.5 93.5,-575.5"/>
<text text-anchor="middle" x="61" y="-560.5" font-family="Helvetica,sans-Serif" font-size="10.00">4</text>
<text text-anchor="middle" x="61" y="-549.5" font-family="Helvetica,sans-Serif" font-size="10.00">(external)</text>
</g>
<!-- IMP_11 -->
<g id="node18" class="node">
<title>IMP_11</title>
<polygon fill="none" stroke="black" stroke-dasharray="5,2" points="93.5,-629.5 28.5,-629.5 28.5,-593.5 93.5,-593.5 93.5,-629.5"/>
<text text-anchor="middle" x="61" y="-614.5" font-family="Helvetica,sans-Serif" font-size="10.00">11</text>
<text text-anchor="middle" x="61" y="-603.5" font-family="Helvetica,sans-Serif" font-size="10.00">(external)</text>
</g>
<!-- IMP_10 -->
<g id="node19" class="node">
<title>IMP_10</title>
<polygon fill="none" stroke="black" stroke-dasharray="5,2" points="93.5,-683.5 28.5,-683.5 28.5,-647.5 93.5,-647.5 93.5,-683.5"/>
<text text-anchor="middle" x="61" y="-668.5" font-family="Helvetica,sans-Serif" font-size="10.00">10</text>
<text text-anchor="middle" x="61" y="-657.5" font-family="Helvetica,sans-Serif" font-size="10.00">(external)</text>
</g>
<!-- IMP_2 -->
<g id="node20" class="node">
<title>IMP_2</title>
<polygon fill="none" stroke="black" stroke-dasharray="5,2" points="93.5,-737.5 28.5,-737.5 28.5,-701.5 93.5,-701.5 93.5,-737.5"/>
<text text-anchor="middle" x="61" y="-722.5" font-family="Helvetica,sans-Serif" font-size="10.00">2</text>
<text text-anchor="middle" x="61" y="-711.5" font-family="Helvetica,sans-Serif" font-size="10.00">(external)</text>
</g>
<!-- L1 -->
<g id="node21" class="node">
<title>L1</title>
<polygon fill="#dbeafe" stroke="black" points="106,-791.5 16,-791.5 16,-755.5 106,-755.5 106,-791.5"/>
<text text-anchor="middle" x="61" y="-771" font-family="Helvetica,sans-Serif" font-size="10.00">global element</text>
</g>
<!-- L2 -->
<g id="node22" class="node">
<title>L2</title>
<polygon fill="#f7f7f7" stroke="black" points="436.5,-791.5 355.5,-791.5 355.5,-755.5 436.5,-755.5 436.5,-791.5"/>
<text text-anchor="middle" x="396" y="-771" font-family="Helvetica,sans-Serif" font-size="10.00">complexType</text>
</g>
<!-- L1&#45;&gt;L2 -->
<!-- L3 -->
<g id="node23" class="node">
<title>L3</title>
<polygon fill="#f3e8ff" stroke="black" points="938,-791.5 866,-791.5 866,-755.5 938,-755.5 938,-791.5"/>
<text text-anchor="middle" x="902" y="-771" font-family="Helvetica,sans-Serif" font-size="10.00">simpleType</text>
</g>
<!-- L2&#45;&gt;L3 -->
</g>
</svg>
