<?xml version="1.0" encoding="UTF-8" standalone="no"?>
<!DOCTYPE svg PUBLIC "-//W3C//DTD SVG 1.1//EN"
 "http://www.w3.org/Graphics/SVG/1.1/DTD/svg11.dtd">
<!-- Generated by graphviz version 2.42.4 (0)
 -->
<!-- Pages: 1 -->
<svg width="609pt" height="256pt"
 viewBox="0.00 0.00 609.20 255.70" xmlns="http://www.w3.org/2000/svg" xmlns:xlink="http://www.w3.org/1999/xlink">
<g id="graph0" class="graph" transform="scale(1 1) rotate(0) translate(21.6 234.1)">
<polygon fill="white" stroke="transparent" points="-21.6,21.6 -21.6,-234.1 587.6,-234.1 587.6,21.6 -21.6,21.6"/>
<text text-anchor="middle" x="283" y="-199.7" font-family="Helvetica,sans-Serif" font-size="11.00">MakeAppxEncryptionExclusions2018.xsd</text>
<text text-anchor="middle" x="283" y="-187.7" font-family="Helvetica,sans-Serif" font-size="11.00">http://schemas.microsoft.com/msix/makeappx/2018/EncryptionExclusions</text>
<g id="clust1" class="cluster">
<title>cluster_legend</title>
<path fill="none" stroke="#cccccc" d="M27.5,-102.5C27.5,-102.5 302,-102.5 302,-102.5 308,-102.5 314,-108.5 314,-114.5 314,-114.5 314,-160.5 314,-160.5 314,-166.5 308,-172.5 302,-172.5 302,-172.5 27.5,-172.5 27.5,-172.5 21.5,-172.5 15.5,-166.5 15.5,-160.5 15.5,-160.5 15.5,-114.5 15.5,-114.5 15.5,-108.5 21.5,-102.5 27.5,-102.5"/>
<text text-anchor="middle" x="164.75" y="-161.3" font-family="Helvetica,sans-Serif" font-size="9.00">legend</text>
</g>
<!-- G_EncryptionExclusionFiles -->
<g id="node1" class="node">
<title>G_EncryptionExclusionFiles</title>
<polygon fill="#dbeafe" stroke="black" points="0,-1.5 0,-37.5 137,-37.5 137,-1.5 0,-1.5"/>
<text text-anchor="middle" x="68.5" y="-22.5" font-family="Helvetica,sans-Serif" font-size="10.00">EncryptionExclusionFiles</text>
<text text-anchor="middle" x="68.5" y="-11.5" font-family="Helvetica,sans-Serif" font-size="10.00">(global)</text>
</g>
<!-- T_EncryptionExclusionFiles -->
<g id="node2" class="node">
<title>T_EncryptionExclusionFiles</title>
<polygon fill="#f7f7f7" stroke="black" points="174,-0.5 174,-38.5 357,-38.5 357,-0.5 174,-0.5"/>
<text text-anchor="middle" x="265.5" y="-26.5" font-family="Helvetica,sans-Serif" font-size="10.00">EncryptionExclusionFiles</text>
<polyline fill="none" stroke="black" points="174,-19.5 357,-19.5 "/>
<text text-anchor="middle" x="265.5" y="-7.5" font-family="Helvetica,sans-Serif" font-size="10.00">File EncryptionExclusionFiles.File?</text>
</g>
<!-- G_EncryptionExclusionFiles&#45;&gt;T_EncryptionExclusionFiles -->
<g id="edge1" class="edge">
<title>G_EncryptionExclusionFiles&#45;&gt;T_EncryptionExclusionFiles</title>
<path fill="none" stroke="#555555" d="M137.15,-19.5C145.79,-19.5 154.76,-19.5 163.78,-19.5"/>
<polygon fill="#555555" stroke="#555555" points="163.95,-23 173.95,-19.5 163.95,-16 163.95,-23"/>
</g>
<!-- T_EncryptionExclusionFiles.File -->
<g id="node3" class="node">
<title>T_EncryptionExclusionFiles.File</title>
<polygon fill="#f7f7f7" stroke="black" points="408,-0.5 408,-38.5 566,-38.5 566,-0.5 408,-0.5"/>
<text text-anchor="middle" x="487" y="-26.5" font-family="Helvetica,sans-Serif" font-size="10.00">EncryptionExclusionFiles.File</text>
<polyline fill="none" stroke="black" points="408,-19.5 566,-19.5 "/>
<text text-anchor="middle" x="487" y="-7.5" font-family="Helvetica,sans-Serif" font-size="10.00">[@ Name]</text>
</g>
<!-- T_EncryptionExclusionFiles&#45;&gt;T_EncryptionExclusionFiles.File -->
<g id="edge2" class="edge">
<title>T_EncryptionExclusionFiles&#45;&gt;T_EncryptionExclusionFiles.File</title>
<path fill="none" stroke="#555555" d="M357.05,-19.5C370.5,-19.5 384.36,-19.5 397.77,-19.5"/>
<polygon fill="#555555" stroke="#555555" points="397.92,-23 407.92,-19.5 397.92,-16 397.92,-23"/>
<text text-anchor="middle" x="382.5" y="-22.3" font-family="Helvetica,sans-Serif" font-size="9.00">File</text>
</g>
<!-- IMP_types -->
<g id="node4" class="node">
<title>IMP_types</title>
<polygon fill="none" stroke="black" stroke-dasharray="5,2" points="101,-92.5 36,-92.5 36,-56.5 101,-56.5 101,-92.5"/>
<text text-anchor="middle" x="68.5" y="-77.5" font-family="Helvetica,sans-Serif" font-size="10.00">types</text>
<text text-anchor="middle" x="68.5" y="-66.5" font-family="Helvetica,sans-Serif" font-size="10.00">(external)</text>
</g>
<!-- L1 -->
<g id="node5" class="node">
<title>L1</title>
<polygon fill="#dbeafe" stroke="black" points="113.5,-146.5 23.5,-146.5 23.5,-110.5 113.5,-110.5 113.5,-146.5"/>
<text text-anchor="middle" x="68.5" y="-126" font-family="Helvetica,sans-Serif" font-size="10.00">global element</text>
</g>
<!-- L2 -->
<g id="node6" class="node">
<title>L2</title>
<polygon fill="#f7f7f7" stroke="black" points="306,-146.5 225,-146.5 225,-110.5 306,-110.5 306,-146.5"/>
<text text-anchor="middle" x="265.5" y="-126" font-family="Helvetica,sans-Serif" font-size="10.00">complexType</text>
</g>
<!-- L1&#45;&gt;L2 -->
</g>
</svg>
